<svg version="1.1" xmlns="http://www.w3.org/2000/svg" xmlns:xlink="http://www.w3.org/1999/xlink" width="643" height="499"><defs/><g><text fill="#eeeeee" stroke="none" font-family="Arial" font-size="24px" font-style="normal" font-weight="normal" text-decoration="none" x="0" y="0"></text><text fill="#eeeeee" stroke="none" font-family="Arial" font-size="24px" font-style="normal" font-weight="normal" text-decoration="none" x="0" y="30"></text><text fill="#eeeeee" stroke="none" font-family="Arial" font-size="24px" font-style="normal" font-weight="normal" text-decoration="none" x="0" y="60"></text><text fill="#eeeeee" stroke="none" font-family="Arial" font-size="24px" font-style="normal" font-weight="normal" text-decoration="none" x="0" y="90"></text><text fill="#eeeeee" stroke="none" font-family="Arial" font-size="24px" font-style="normal" font-weight="normal" text-decoration="none" x="0" y="120"></text><text fill="#eeeeee" stroke="none" font-family="Arial" font-size="24px" font-style="normal" font-weight="normal" text-decoration="none" x="0" y="150"></text><text fill="#eeeeee" stroke="none" font-family="Arial" font-size="24px" font-style="normal" font-weight="normal" text-decoration="none" x="0" y="180"></text><text fill="#eeeeee" stroke="none" font-family="Arial" font-size="24px" font-style="normal" font-weight="normal" text-decoration="none" x="0" y="210"></text><text fill="#eeeeee" stroke="none" font-family="Arial" font-size="24px" font-style="normal" font-weight="normal" text-decoration="none" x="0" y="240"></text><text fill="#eeeeee" stroke="none" font-family="Arial" font-size="24px" font-style="normal" font-weight="normal" text-decoration="none" x="0" y="270"></text><text fill="#eeeeee" stroke="none" font-family="Arial" font-size="24px" font-style="normal" font-weight="normal" text-decoration="none" x="0" y="300"></text><text fill="#eeeeee" stroke="none" font-family="Arial" font-size="24px" font-style="normal" font-weight="normal" text-decoration="none" x="0" y="330"></text><text fill="#eeeeee" stroke="none" font-family="Arial" font-size="24px" font-style="normal" font-weight="normal" text-decoration="none" x="0" y="360"></text><text fill="#eeeeee" stroke="none" font-family="Arial" font-size="24px" font-style="normal" font-weight="normal" text-decoration="none" x="0" y="390"></text><text fill="#eeeeee" stroke="none" font-family="Arial" font-size="24px" font-style="normal" font-weight="normal" text-decoration="none" x="0" y="420"></text><text fill="#eeeeee" stroke="none" font-family="Arial" font-size="24px" font-style="normal" font-weight="normal" text-decoration="none" x="0" y="450"></text><text fill="#eeeeee" stroke="none" font-family="Arial" font-size="24px" font-style="normal" font-weight="normal" text-decoration="none" x="0" y="480"></text><text fill="#eeeeee" stroke="none" font-family="Arial" font-size="24px" font-style="normal" font-weight="normal" text-decoration="none" x="200" y="0"></text><text fill="#eeeeee" stroke="none" font-family="Arial" font-size="24px" font-style="normal" font-weight="normal" text-decoration="none" x="200" y="30"></text><text fill="#eeeeee" stroke="none" font-family="Arial" font-size="24px" font-style="normal" font-weight="normal" text-decoration="none" x="200" y="60"></text><text fill="#eeeeee" stroke="none" font-family="Arial" font-size="24px" font-style="normal" font-weight="normal" text-decoration="none" x="200" y="90"></text><text fill="#eeeeee" stroke="none" font-family="Arial" font-size="24px" font-style="normal" font-weight="normal" text-decoration="none" x="200" y="120"></text><text fill="#eeeeee" stroke="none" font-family="Arial" font-size="24px" font-style="normal" font-weight="normal" text-decoration="none" x="200" y="150"></text><text fill="#eeeeee" stroke="none" font-family="Arial" font-size="24px" font-style="normal" font-weight="normal" text-decoration="none" x="200" y="180"></text><text fill="#eeeeee" stroke="none" font-family="Arial" font-size="24px" font-style="normal" font-weight="normal" text-decoration="none" x="200" y="210"></text><text fill="#eeeeee" stroke="none" font-family="Arial" font-size="24px" font-style="normal" font-weight="normal" text-decoration="none" x="200" y="240"></text><text fill="#eeeeee" stroke="none" font-family="Arial" font-size="24px" font-style="normal" font-weight="normal" text-decoration="none" x="200" y="270"></text><text fill="#eeeeee" stroke="none" font-family="Arial" font-size="24px" font-style="normal" font-weight="normal" text-decoration="none" x="200" y="300"></text><text fill="#eeeeee" stroke="none" font-family="Arial" font-size="24px" font-style="normal" font-weight="normal" text-decoration="none" x="200" y="330"></text><text fill="#eeeeee" stroke="none" font-family="Arial" font-size="24px" font-style="normal" font-weight="normal" text-decoration="none" x="200" y="360"></text><text fill="#eeeeee" stroke="none" font-family="Arial" font-size="24px" font-style="normal" font-weight="normal" text-decoration="none" x="200" y="390"></text><text fill="#eeeeee" stroke="none" font-family="Arial" font-size="24px" font-style="normal" font-weight="normal" text-decoration="none" x="200" y="420"></text><text fill="#eeeeee" stroke="none" font-family="Arial" font-size="24px" font-style="normal" font-weight="normal" text-decoration="none" x="200" y="450"></text><text fill="#eeeeee" stroke="none" font-family="Arial" font-size="24px" font-style="normal" font-weight="normal" text-decoration="none" x="200" y="480"></text><text fill="#eeeeee" stroke="none" font-family="Arial" font-size="24px" font-style="normal" font-weight="normal" text-decoration="none" x="400" y="0"></text><text fill="#eeeeee" stroke="none" font-family="Arial" font-size="24px" font-style="normal" font-weight="normal" text-decoration="none" x="400" y="30"></text><text fill="#eeeeee" stroke="none" font-family="Arial" font-size="24px" font-style="normal" font-weight="normal" text-decoration="none" x="400" y="60"></text><text fill="#eeeeee" stroke="none" font-family="Arial" font-size="24px" font-style="normal" font-weight="normal" text-decoration="none" x="400" y="90"></text><text fill="#eeeeee" stroke="none" font-family="Arial" font-size="24px" font-style="normal" font-weight="normal" text-decoration="none" x="400" y="120"></text><text fill="#eeeeee" stroke="none" font-family="Arial" font-size="24px" font-style="normal" font-weight="normal" text-decoration="none" x="400" y="150"></text><text fill="#eeeeee" stroke="none" font-family="Arial" font-size="24px" font-style="normal" font-weight="normal" text-decoration="none" x="400" y="180"></text><text fill="#eeeeee" stroke="none" font-family="Arial" font-size="24px" font-style="normal" font-weight="normal" text-decoration="none" x="400" y="210"></text><text fill="#eeeeee" stroke="none" font-family="Arial" font-size="24px" font-style="normal" font-weight="normal" text-decoration="none" x="400" y="240"></text><text fill="#eeeeee" stroke="none" font-family="Arial" font-size="24px" font-style="normal" font-weight="normal" text-decoration="none" x="400" y="270"></text><text fill="#eeeeee" stroke="none" font-family="Arial" font-size="24px" font-style="normal" font-weight="normal" text-decoration="none" x="400" y="300"></text><text fill="#eeeeee" stroke="none" font-family="Arial" font-size="24px" font-style="normal" font-weight="normal" text-decoration="none" x="400" y="330"></text><text fill="#eeeeee" stroke="none" font-family="Arial" font-size="24px" font-style="normal" font-weight="normal" text-decoration="none" x="400" y="360"></text><text fill="#eeeeee" stroke="none" font-family="Arial" font-size="24px" font-style="normal" font-weight="normal" text-decoration="none" x="400" y="390"></text><text fill="#eeeeee" stroke="none" font-family="Arial" font-size="24px" font-style="normal" font-weight="normal" text-decoration="none" x="400" y="420"></text><text fill="#eeeeee" stroke="none" font-family="Arial" font-size="24px" font-style="normal" font-weight="normal" text-decoration="none" x="400" y="450"></text><text fill="#eeeeee" stroke="none" font-family="Arial" font-size="24px" font-style="normal" font-weight="normal" text-decoration="none" x="400" y="480"></text><text fill="#eeeeee" stroke="none" font-family="Arial" font-size="24px" font-style="normal" font-weight="normal" text-decoration="none" x="600" y="0"></text><text fill="#eeeeee" stroke="none" font-family="Arial" font-size="24px" font-style="normal" font-weight="normal" text-decoration="none" x="600" y="30"></text><text fill="#eeeeee" stroke="none" font-family="Arial" font-size="24px" font-style="normal" font-weight="normal" text-decoration="none" x="600" y="60"></text><text fill="#eeeeee" stroke="none" font-family="Arial" font-size="24px" font-style="normal" font-weight="normal" text-decoration="none" x="600" y="90"></text><text fill="#eeeeee" stroke="none" font-family="Arial" font-size="24px" font-style="normal" font-weight="normal" text-decoration="none" x="600" y="120"></text><text fill="#eeeeee" stroke="none" font-family="Arial" font-size="24px" font-style="normal" font-weight="normal" text-decoration="none" x="600" y="150"></text><text fill="#eeeeee" stroke="none" font-family="Arial" font-size="24px" font-style="normal" font-weight="normal" text-decoration="none" x="600" y="180"></text><text fill="#eeeeee" stroke="none" font-family="Arial" font-size="24px" font-style="normal" font-weight="normal" text-decoration="none" x="600" y="210"></text><text fill="#eeeeee" stroke="none" font-family="Arial" font-size="24px" font-style="normal" font-weight="normal" text-decoration="none" x="600" y="240"></text><text fill="#eeeeee" stroke="none" font-family="Arial" font-size="24px" font-style="normal" font-weight="normal" text-decoration="none" x="600" y="270"></text><text fill="#eeeeee" stroke="none" font-family="Arial" font-size="24px" font-style="normal" font-weight="normal" text-decoration="none" x="600" y="300"></text><text fill="#eeeeee" stroke="none" font-family="Arial" font-size="24px" font-style="normal" font-weight="normal" text-decoration="none" x="600" y="330"></text><text fill="#eeeeee" stroke="none" font-family="Arial" font-size="24px" font-style="normal" font-weight="normal" text-decoration="none" x="600" y="360"></text><text fill="#eeeeee" stroke="none" font-family="Arial" font-size="24px" font-style="normal" font-weight="normal" text-decoration="none" x="600" y="390"></text><text fill="#eeeeee" stroke="none" font-family="Arial" font-size="24px" font-style="normal" font-weight="normal" text-decoration="none" x="600" y="420"></text><text fill="#eeeeee" stroke="none" font-family="Arial" font-size="24px" font-style="normal" font-weight="normal" text-decoration="none" x="600" y="450"></text><text fill="#eeeeee" stroke="none" font-family="Arial" font-size="24px" font-style="normal" font-weight="normal" text-decoration="none" x="600" y="480"></text><g transform="translate(-94,-102) scale(1,1)"><rect fill="#C0C0C0" stroke="none" x="367" y="119" width="367" height="479" opacity="0.2"/></g><g transform="translate(-94,-102) scale(1,1)"><rect fill="#ffffff" stroke="none" x="360" y="112" width="367" height="479"/></g><g transform="translate(-94,-102) scale(1,1)"><path fill="none" stroke="#000000" d="M 360 112 L 727 112 L 727 591 L 360 591 L 360 112 Z Z" stroke-miterlimit="10"/></g><g transform="translate(-94,-102) scale(1,1)"><g><path fill="none" stroke="none"/><text fill="#000000" stroke="none" font-family="Arial" font-size="13px" font-style="normal" font-weight="bold" text-decoration="none" x="507.004150390625" y="131.5">Manutentore</text></g></g><g transform="translate(-94,-102) scale(1,1)"><path fill="#ffffff" stroke="none" d="M 170.23845188210228 305.68 C 170.23845188210228 300.886167936 174.12429420704774 297 178.917724609375 297 C 183.71115501170226 297 187.59699733664772 300.886167936 187.59699733664772 305.68 C 187.59699733664772 310.473832064 183.71115501170226 314.36 178.917724609375 314.36 C 174.12429420704774 314.36 170.23845188210228 310.473832064 170.23845188210228 305.68 Z"/></g><g transform="translate(-94,-102) scale(1,1)"><path fill="none" stroke="#000000" d="M 170.23845188210228 305.68 C 170.23845188210228 300.886167936 174.12429420704774 297 178.917724609375 297 C 183.71115501170226 297 187.59699733664772 300.886167936 187.59699733664772 305.68 C 187.59699733664772 310.473832064 183.71115501170226 314.36 178.917724609375 314.36 C 174.12429420704774 314.36 170.23845188210228 310.473832064 170.23845188210228 305.68 Z" stroke-miterlimit="10"/></g><g transform="translate(-94,-102) scale(1,1)"><path fill="none" stroke="#000000" d="M 178.917724609375 314.36 L 178.917724609375 331.64" stroke-miterlimit="10"/></g><g transform="translate(-94,-102) scale(1,1)"><path fill="none" stroke="#000000" d="M 169.72790642755683 320.84 L 188.10754279119317 320.84" stroke-miterlimit="10"/></g><g transform="translate(-94,-102) scale(1,1)"><path fill="none" stroke="#000000" d="M 178.917724609375 331.64 L 166.15408824573865 349" stroke-miterlimit="10"/></g><g transform="translate(-94,-102) scale(1,1)"><path fill="none" stroke="#000000" d="M 178.917724609375 331.64 L 191.68136097301135 349" stroke-miterlimit="10"/></g><g transform="translate(-94,-102) scale(1,1)"><g><path fill="none" stroke="none"/><text fill="#000000" stroke="none" font-family="Arial" font-size="13px" font-style="normal" font-weight="bold" text-decoration="none" x="113.50830078125" y="369.5">Utente non autenticato</text></g></g><g transform="translate(-94,-102) scale(1,1)"><path fill="#C0C0C0" stroke="none" d="M 439 193 C 439 178.6405952 492.725824 167 559 167 C 625.274176 167 679 178.6405952 679 193 C 679 207.3594048 625.274176 219 559 219 C 492.725824 219 439 207.3594048 439 193 Z" opacity="0.2"/></g><g transform="translate(-94,-102) scale(1,1)"><path fill="#ffffff" stroke="none" d="M 432 186 C 432 171.6405952 485.725824 160 552 160 C 618.274176 160 672 171.6405952 672 186 C 672 200.3594048 618.274176 212 552 212 C 485.725824 212 432 200.3594048 432 186 Z"/></g><g transform="translate(-94,-102) scale(1,1)"><path fill="none" stroke="#000000" d="M 432 186 C 432 171.6405952 485.725824 160 552 160 C 618.274176 160 672 171.6405952 672 186 C 672 200.3594048 618.274176 212 552 212 C 485.725824 212 432 200.3594048 432 186 Z" stroke-miterlimit="10"/></g><g transform="translate(-94,-102) scale(1,1)"><g><path fill="none" stroke="none"/><text fill="#000000" stroke="none" font-family="Arial" font-size="13px" font-style="normal" font-weight="bold" text-decoration="none" x="481.5537109375" y="186.5">UC6 Ottenimento lista di</text><text fill="#000000" stroke="none" font-family="Arial" font-size="13px" font-style="normal" font-weight="bold" text-decoration="none" x="502.142333984375" y="199.5">tutti i manutentori</text></g></g><g transform="translate(-94,-102) scale(1,1)"><path fill="#C0C0C0" stroke="none" d="M 439 274.5 C 439 254.8938896 490.93496319999997 239 555 239 C 619.0650368 239 671 254.8938896 671 274.5 C 671 294.1061104 619.0650368 310 555 310 C 490.93496319999997 310 439 294.1061104 439 274.5 Z" opacity="0.2"/></g><g transform="translate(-94,-102) scale(1,1)"><path fill="#ffffff" stroke="none" d="M 432 267.5 C 432 247.8938896 483.93496319999997 232 548 232 C 612.0650368 232 664 247.8938896 664 267.5 C 664 287.1061104 612.0650368 303 548 303 C 483.93496319999997 303 432 287.1061104 432 267.5 Z"/></g><g transform="translate(-94,-102) scale(1,1)"><path fill="none" stroke="#000000" d="M 432 267.5 C 432 247.8938896 483.93496319999997 232 548 232 C 612.0650368 232 664 247.8938896 664 267.5 C 664 287.1061104 612.0650368 303 548 303 C 483.93496319999997 303 432 287.1061104 432 267.5 Z" stroke-miterlimit="10"/></g><g transform="translate(-94,-102) scale(1,1)"><g><path fill="none" stroke="none"/><text fill="#000000" stroke="none" font-family="Arial" font-size="13px" font-style="normal" font-weight="bold" text-decoration="none" x="478.6328125" y="268">UC7 Ottenimento dati di</text><text fill="#000000" stroke="none" font-family="Arial" font-size="13px" font-style="normal" font-weight="bold" text-decoration="none" x="502.46826171875" y="281">un manutentore</text></g></g><g transform="translate(-94,-102) scale(1,1)"><path fill="#C0C0C0" stroke="none" d="M 439 361 C 439 346.6405952 492.725824 335 559 335 C 625.274176 335 679 346.6405952 679 361 C 679 375.3594048 625.274176 387 559 387 C 492.725824 387 439 375.3594048 439 361 Z" opacity="0.2"/></g><g transform="translate(-94,-102) scale(1,1)"><path fill="#ffffff" stroke="none" d="M 432 354 C 432 339.6405952 485.725824 328 552 328 C 618.274176 328 672 339.6405952 672 354 C 672 368.3594048 618.274176 380 552 380 C 485.725824 380 432 368.3594048 432 354 Z"/></g><g transform="translate(-94,-102) scale(1,1)"><path fill="none" stroke="#000000" d="M 432 354 C 432 339.6405952 485.725824 328 552 328 C 618.274176 328 672 339.6405952 672 354 C 672 368.3594048 618.274176 380 552 380 C 485.725824 380 432 368.3594048 432 354 Z" stroke-miterlimit="10"/></g><g transform="translate(-94,-102) scale(1,1)"><g><path fill="none" stroke="none"/><text fill="#000000" stroke="none" font-family="Arial" font-size="13px" font-style="normal" font-weight="bold" text-decoration="none" x="491.662353515625" y="354.5">UC8 Creazione di un</text><text fill="#000000" stroke="none" font-family="Arial" font-size="13px" font-style="normal" font-weight="bold" text-decoration="none" x="515.504150390625" y="367.5">manutentore</text></g></g><g transform="translate(-94,-102) scale(1,1)"><path fill="#C0C0C0" stroke="none" d="M 423 442.5 C 423 422.8938896 483.8892672 407 559 407 C 634.1107328 407 695 422.8938896 695 442.5 C 695 462.1061104 634.1107328 478 559 478 C 483.8892672 478 423 462.1061104 423 442.5 Z" opacity="0.2"/></g><g transform="translate(-94,-102) scale(1,1)"><path fill="#ffffff" stroke="none" d="M 416 435.5 C 416 415.8938896 476.8892672 400 552 400 C 627.1107328 400 688 415.8938896 688 435.5 C 688 455.1061104 627.1107328 471 552 471 C 476.8892672 471 416 455.1061104 416 435.5 Z"/></g><g transform="translate(-94,-102) scale(1,1)"><path fill="none" stroke="#000000" d="M 416 435.5 C 416 415.8938896 476.8892672 400 552 400 C 627.1107328 400 688 415.8938896 688 435.5 C 688 455.1061104 627.1107328 471 552 471 C 476.8892672 471 416 455.1061104 416 435.5 Z" stroke-miterlimit="10"/></g><g transform="translate(-94,-102) scale(1,1)"><g><path fill="none" stroke="none"/><text fill="#000000" stroke="none" font-family="Arial" font-size="13px" font-style="normal" font-weight="bold" text-decoration="none" x="484.800537109375" y="436">UC9 Modifica dati di un</text><text fill="#000000" stroke="none" font-family="Arial" font-size="13px" font-style="normal" font-weight="bold" text-decoration="none" x="515.504150390625" y="449">manutentore</text></g></g><g transform="translate(-94,-102) scale(1,1)"><path fill="#C0C0C0" stroke="none" d="M 431 538.5 C 431 518.8938896 490.0984064 503 563 503 C 635.9015936 503 695 518.8938896 695 538.5 C 695 558.1061104 635.9015936 574 563 574 C 490.0984064 574 431 558.1061104 431 538.5 Z" opacity="0.2"/></g><g transform="translate(-94,-102) scale(1,1)"><path fill="#ffffff" stroke="none" d="M 424 531.5 C 424 511.8938896 483.0984064 496 556 496 C 628.9015936 496 688 511.8938896 688 531.5 C 688 551.1061104 628.9015936 567 556 567 C 483.0984064 567 424 551.1061104 424 531.5 Z"/></g><g transform="translate(-94,-102) scale(1,1)"><path fill="none" stroke="#000000" d="M 424 531.5 C 424 511.8938896 483.0984064 496 556 496 C 628.9015936 496 688 511.8938896 688 531.5 C 688 551.1061104 628.9015936 567 556 567 C 483.0984064 567 424 551.1061104 424 531.5 Z" stroke-miterlimit="10"/></g><g transform="translate(-94,-102) scale(1,1)"><g><path fill="none" stroke="none"/><text fill="#000000" stroke="none" font-family="Arial" font-size="13px" font-style="normal" font-weight="bold" text-decoration="none" x="484.82373046875" y="532">UC10 Eliminazione di un</text><text fill="#000000" stroke="none" font-family="Arial" font-size="13px" font-style="normal" font-weight="bold" text-decoration="none" x="519.504150390625" y="545">manutentore</text></g></g><g transform="translate(-94,-102) scale(1,1)"><path fill="none" stroke="#000000" d="M 255 304 L 484 213" stroke-miterlimit="10"/></g><g transform="translate(-94,-102) scale(1,1)"><path fill="none" stroke="#000000" d="M 255 321 L 431 289" stroke-miterlimit="10"/></g><g transform="translate(-94,-102) scale(1,1)"><path fill="none" stroke="#000000" d="M 255 339 L 431 348" stroke-miterlimit="10"/></g><g transform="translate(-94,-102) scale(1,1)"><path fill="none" stroke="#000000" d="M 255 356 L 417 399" stroke-miterlimit="10"/></g><g transform="translate(-94,-102) scale(1,1)"><path fill="none" stroke="#000000" d="M 255 375 L 487 495" stroke-miterlimit="10"/></g></g></svg>