<svg version="1.1" xmlns="http://www.w3.org/2000/svg" xmlns:xlink="http://www.w3.org/1999/xlink" width="715" height="531"><defs/><g><text fill="#eeeeee" stroke="none" font-family="Arial" font-size="24px" font-style="normal" font-weight="normal" text-decoration="none" x="0" y="0"></text><text fill="#eeeeee" stroke="none" font-family="Arial" font-size="24px" font-style="normal" font-weight="normal" text-decoration="none" x="0" y="30"></text><text fill="#eeeeee" stroke="none" font-family="Arial" font-size="24px" font-style="normal" font-weight="normal" text-decoration="none" x="0" y="60"></text><text fill="#eeeeee" stroke="none" font-family="Arial" font-size="24px" font-style="normal" font-weight="normal" text-decoration="none" x="0" y="90"></text><text fill="#eeeeee" stroke="none" font-family="Arial" font-size="24px" font-style="normal" font-weight="normal" text-decoration="none" x="0" y="120"></text><text fill="#eeeeee" stroke="none" font-family="Arial" font-size="24px" font-style="normal" font-weight="normal" text-decoration="none" x="0" y="150"></text><text fill="#eeeeee" stroke="none" font-family="Arial" font-size="24px" font-style="normal" font-weight="normal" text-decoration="none" x="0" y="180"></text><text fill="#eeeeee" stroke="none" font-family="Arial" font-size="24px" font-style="normal" font-weight="normal" text-decoration="none" x="0" y="210"></text><text fill="#eeeeee" stroke="none" font-family="Arial" font-size="24px" font-style="normal" font-weight="normal" text-decoration="none" x="0" y="240"></text><text fill="#eeeeee" stroke="none" font-family="Arial" font-size="24px" font-style="normal" font-weight="normal" text-decoration="none" x="0" y="270"></text><text fill="#eeeeee" stroke="none" font-family="Arial" font-size="24px" font-style="normal" font-weight="normal" text-decoration="none" x="0" y="300"></text><text fill="#eeeeee" stroke="none" font-family="Arial" font-size="24px" font-style="normal" font-weight="normal" text-decoration="none" x="0" y="330"></text><text fill="#eeeeee" stroke="none" font-family="Arial" font-size="24px" font-style="normal" font-weight="normal" text-decoration="none" x="0" y="360"></text><text fill="#eeeeee" stroke="none" font-family="Arial" font-size="24px" font-style="normal" font-weight="normal" text-decoration="none" x="0" y="390"></text><text fill="#eeeeee" stroke="none" font-family="Arial" font-size="24px" font-style="normal" font-weight="normal" text-decoration="none" x="0" y="420"></text><text fill="#eeeeee" stroke="none" font-family="Arial" font-size="24px" font-style="normal" font-weight="normal" text-decoration="none" x="0" y="450"></text><text fill="#eeeeee" stroke="none" font-family="Arial" font-size="24px" font-style="normal" font-weight="normal" text-decoration="none" x="0" y="480"></text><text fill="#eeeeee" stroke="none" font-family="Arial" font-size="24px" font-style="normal" font-weight="normal" text-decoration="none" x="0" y="510"></text><text fill="#eeeeee" stroke="none" font-family="Arial" font-size="24px" font-style="normal" font-weight="normal" text-decoration="none" x="200" y="0"></text><text fill="#eeeeee" stroke="none" font-family="Arial" font-size="24px" font-style="normal" font-weight="normal" text-decoration="none" x="200" y="30"></text><text fill="#eeeeee" stroke="none" font-family="Arial" font-size="24px" font-style="normal" font-weight="normal" text-decoration="none" x="200" y="60"></text><text fill="#eeeeee" stroke="none" font-family="Arial" font-size="24px" font-style="normal" font-weight="normal" text-decoration="none" x="200" y="90"></text><text fill="#eeeeee" stroke="none" font-family="Arial" font-size="24px" font-style="normal" font-weight="normal" text-decoration="none" x="200" y="120"></text><text fill="#eeeeee" stroke="none" font-family="Arial" font-size="24px" font-style="normal" font-weight="normal" text-decoration="none" x="200" y="150"></text><text fill="#eeeeee" stroke="none" font-family="Arial" font-size="24px" font-style="normal" font-weight="normal" text-decoration="none" x="200" y="180"></text><text fill="#eeeeee" stroke="none" font-family="Arial" font-size="24px" font-style="normal" font-weight="normal" text-decoration="none" x="200" y="210"></text><text fill="#eeeeee" stroke="none" font-family="Arial" font-size="24px" font-style="normal" font-weight="normal" text-decoration="none" x="200" y="240"></text><text fill="#eeeeee" stroke="none" font-family="Arial" font-size="24px" font-style="normal" font-weight="normal" text-decoration="none" x="200" y="270"></text><text fill="#eeeeee" stroke="none" font-family="Arial" font-size="24px" font-style="normal" font-weight="normal" text-decoration="none" x="200" y="300"></text><text fill="#eeeeee" stroke="none" font-family="Arial" font-size="24px" font-style="normal" font-weight="normal" text-decoration="none" x="200" y="330"></text><text fill="#eeeeee" stroke="none" font-family="Arial" font-size="24px" font-style="normal" font-weight="normal" text-decoration="none" x="200" y="360"></text><text fill="#eeeeee" stroke="none" font-family="Arial" font-size="24px" font-style="normal" font-weight="normal" text-decoration="none" x="200" y="390"></text><text fill="#eeeeee" stroke="none" font-family="Arial" font-size="24px" font-style="normal" font-weight="normal" text-decoration="none" x="200" y="420"></text><text fill="#eeeeee" stroke="none" font-family="Arial" font-size="24px" font-style="normal" font-weight="normal" text-decoration="none" x="200" y="450"></text><text fill="#eeeeee" stroke="none" font-family="Arial" font-size="24px" font-style="normal" font-weight="normal" text-decoration="none" x="200" y="480"></text><text fill="#eeeeee" stroke="none" font-family="Arial" font-size="24px" font-style="normal" font-weight="normal" text-decoration="none" x="200" y="510"></text><text fill="#eeeeee" stroke="none" font-family="Arial" font-size="24px" font-style="normal" font-weight="normal" text-decoration="none" x="400" y="0"></text><text fill="#eeeeee" stroke="none" font-family="Arial" font-size="24px" font-style="normal" font-weight="normal" text-decoration="none" x="400" y="30"></text><text fill="#eeeeee" stroke="none" font-family="Arial" font-size="24px" font-style="normal" font-weight="normal" text-decoration="none" x="400" y="60"></text><text fill="#eeeeee" stroke="none" font-family="Arial" font-size="24px" font-style="normal" font-weight="normal" text-decoration="none" x="400" y="90"></text><text fill="#eeeeee" stroke="none" font-family="Arial" font-size="24px" font-style="normal" font-weight="normal" text-decoration="none" x="400" y="120"></text><text fill="#eeeeee" stroke="none" font-family="Arial" font-size="24px" font-style="normal" font-weight="normal" text-decoration="none" x="400" y="150"></text><text fill="#eeeeee" stroke="none" font-family="Arial" font-size="24px" font-style="normal" font-weight="normal" text-decoration="none" x="400" y="180"></text><text fill="#eeeeee" stroke="none" font-family="Arial" font-size="24px" font-style="normal" font-weight="normal" text-decoration="none" x="400" y="210"></text><text fill="#eeeeee" stroke="none" font-family="Arial" font-size="24px" font-style="normal" font-weight="normal" text-decoration="none" x="400" y="240"></text><text fill="#eeeeee" stroke="none" font-family="Arial" font-size="24px" font-style="normal" font-weight="normal" text-decoration="none" x="400" y="270"></text><text fill="#eeeeee" stroke="none" font-family="Arial" font-size="24px" font-style="normal" font-weight="normal" text-decoration="none" x="400" y="300"></text><text fill="#eeeeee" stroke="none" font-family="Arial" font-size="24px" font-style="normal" font-weight="normal" text-decoration="none" x="400" y="330"></text><text fill="#eeeeee" stroke="none" font-family="Arial" font-size="24px" font-style="normal" font-weight="normal" text-decoration="none" x="400" y="360"></text><text fill="#eeeeee" stroke="none" font-family="Arial" font-size="24px" font-style="normal" font-weight="normal" text-decoration="none" x="400" y="390"></text><text fill="#eeeeee" stroke="none" font-family="Arial" font-size="24px" font-style="normal" font-weight="normal" text-decoration="none" x="400" y="420"></text><text fill="#eeeeee" stroke="none" font-family="Arial" font-size="24px" font-style="normal" font-weight="normal" text-decoration="none" x="400" y="450"></text><text fill="#eeeeee" stroke="none" font-family="Arial" font-size="24px" font-style="normal" font-weight="normal" text-decoration="none" x="400" y="480"></text><text fill="#eeeeee" stroke="none" font-family="Arial" font-size="24px" font-style="normal" font-weight="normal" text-decoration="none" x="400" y="510"></text><text fill="#eeeeee" stroke="none" font-family="Arial" font-size="24px" font-style="normal" font-weight="normal" text-decoration="none" x="600" y="0"></text><text fill="#eeeeee" stroke="none" font-family="Arial" font-size="24px" font-style="normal" font-weight="normal" text-decoration="none" x="600" y="30"></text><text fill="#eeeeee" stroke="none" font-family="Arial" font-size="24px" font-style="normal" font-weight="normal" text-decoration="none" x="600" y="60"></text><text fill="#eeeeee" stroke="none" font-family="Arial" font-size="24px" font-style="normal" font-weight="normal" text-decoration="none" x="600" y="90"></text><text fill="#eeeeee" stroke="none" font-family="Arial" font-size="24px" font-style="normal" font-weight="normal" text-decoration="none" x="600" y="120"></text><text fill="#eeeeee" stroke="none" font-family="Arial" font-size="24px" font-style="normal" font-weight="normal" text-decoration="none" x="600" y="150"></text><text fill="#eeeeee" stroke="none" font-family="Arial" font-size="24px" font-style="normal" font-weight="normal" text-decoration="none" x="600" y="180"></text><text fill="#eeeeee" stroke="none" font-family="Arial" font-size="24px" font-style="normal" font-weight="normal" text-decoration="none" x="600" y="210"></text><text fill="#eeeeee" stroke="none" font-family="Arial" font-size="24px" font-style="normal" font-weight="normal" text-decoration="none" x="600" y="240"></text><text fill="#eeeeee" stroke="none" font-family="Arial" font-size="24px" font-style="normal" font-weight="normal" text-decoration="none" x="600" y="270"></text><text fill="#eeeeee" stroke="none" font-family="Arial" font-size="24px" font-style="normal" font-weight="normal" text-decoration="none" x="600" y="300"></text><text fill="#eeeeee" stroke="none" font-family="Arial" font-size="24px" font-style="normal" font-weight="normal" text-decoration="none" x="600" y="330"></text><text fill="#eeeeee" stroke="none" font-family="Arial" font-size="24px" font-style="normal" font-weight="normal" text-decoration="none" x="600" y="360"></text><text fill="#eeeeee" stroke="none" font-family="Arial" font-size="24px" font-style="normal" font-weight="normal" text-decoration="none" x="600" y="390"></text><text fill="#eeeeee" stroke="none" font-family="Arial" font-size="24px" font-style="normal" font-weight="normal" text-decoration="none" x="600" y="420"></text><text fill="#eeeeee" stroke="none" font-family="Arial" font-size="24px" font-style="normal" font-weight="normal" text-decoration="none" x="600" y="450"></text><text fill="#eeeeee" stroke="none" font-family="Arial" font-size="24px" font-style="normal" font-weight="normal" text-decoration="none" x="600" y="480"></text><text fill="#eeeeee" stroke="none" font-family="Arial" font-size="24px" font-style="normal" font-weight="normal" text-decoration="none" x="600" y="510"></text><g transform="translate(-70,-142) scale(1,1)"><rect fill="#C0C0C0" stroke="none" x="383" y="159" width="399" height="511" opacity="0.2"/></g><g transform="translate(-70,-142) scale(1,1)"><rect fill="#ffffff" stroke="none" x="376" y="152" width="399" height="511"/></g><g transform="translate(-70,-142) scale(1,1)"><path fill="none" stroke="#000000" d="M 376 152 L 775 152 L 775 663 L 376 663 L 376 152 Z Z" stroke-miterlimit="10"/></g><g transform="translate(-70,-142) scale(1,1)"><g><path fill="none" stroke="none"/><text fill="#000000" stroke="none" font-family="Arial" font-size="13px" font-style="normal" font-weight="bold" text-decoration="none" x="550.931396484375" y="171.5">Piazzola</text></g></g><g transform="translate(-70,-142) scale(1,1)"><path fill="#ffffff" stroke="none" d="M 146.23845188210228 393.68 C 146.23845188210228 388.886167936 150.12429420704774 385 154.917724609375 385 C 159.71115501170226 385 163.59699733664772 388.886167936 163.59699733664772 393.68 C 163.59699733664772 398.473832064 159.71115501170226 402.36 154.917724609375 402.36 C 150.12429420704774 402.36 146.23845188210228 398.473832064 146.23845188210228 393.68 Z"/></g><g transform="translate(-70,-142) scale(1,1)"><path fill="none" stroke="#000000" d="M 146.23845188210228 393.68 C 146.23845188210228 388.886167936 150.12429420704774 385 154.917724609375 385 C 159.71115501170226 385 163.59699733664772 388.886167936 163.59699733664772 393.68 C 163.59699733664772 398.473832064 159.71115501170226 402.36 154.917724609375 402.36 C 150.12429420704774 402.36 146.23845188210228 398.473832064 146.23845188210228 393.68 Z" stroke-miterlimit="10"/></g><g transform="translate(-70,-142) scale(1,1)"><path fill="none" stroke="#000000" d="M 154.917724609375 402.36 L 154.917724609375 419.64" stroke-miterlimit="10"/></g><g transform="translate(-70,-142) scale(1,1)"><path fill="none" stroke="#000000" d="M 145.72790642755683 408.84 L 164.10754279119317 408.84" stroke-miterlimit="10"/></g><g transform="translate(-70,-142) scale(1,1)"><path fill="none" stroke="#000000" d="M 154.917724609375 419.64 L 142.15408824573865 437" stroke-miterlimit="10"/></g><g transform="translate(-70,-142) scale(1,1)"><path fill="none" stroke="#000000" d="M 154.917724609375 419.64 L 167.68136097301135 437" stroke-miterlimit="10"/></g><g transform="translate(-70,-142) scale(1,1)"><g><path fill="none" stroke="none"/><text fill="#000000" stroke="none" font-family="Arial" font-size="13px" font-style="normal" font-weight="bold" text-decoration="none" x="89.50830078125" y="457.5">Utente non autenticato</text></g></g><g transform="translate(-70,-142) scale(1,1)"><path fill="#C0C0C0" stroke="none" d="M 463 258.5 C 463 238.8938896 523.8892672 223 599 223 C 674.1107328 223 735 238.8938896 735 258.5 C 735 278.1061104 674.1107328 294 599 294 C 523.8892672 294 463 278.1061104 463 258.5 Z" opacity="0.2"/></g><g transform="translate(-70,-142) scale(1,1)"><path fill="#ffffff" stroke="none" d="M 456 251.5 C 456 231.8938896 516.8892672 216 592 216 C 667.1107328 216 728 231.8938896 728 251.5 C 728 271.1061104 667.1107328 287 592 287 C 516.8892672 287 456 271.1061104 456 251.5 Z"/></g><g transform="translate(-70,-142) scale(1,1)"><path fill="none" stroke="#000000" d="M 456 251.5 C 456 231.8938896 516.8892672 216 592 216 C 667.1107328 216 728 231.8938896 728 251.5 C 728 271.1061104 667.1107328 287 592 287 C 516.8892672 287 456 271.1061104 456 251.5 Z" stroke-miterlimit="10"/></g><g transform="translate(-70,-142) scale(1,1)"><g><path fill="none" stroke="none"/><text fill="#000000" stroke="none" font-family="Arial" font-size="13px" font-style="normal" font-weight="bold" text-decoration="none" x="517.938720703125" y="245.5">UC15 Ottenimento lista di</text><text fill="#000000" stroke="none" font-family="Arial" font-size="13px" font-style="normal" font-weight="bold" text-decoration="none" x="530.932373046875" y="258.5">tutte le piazzole di un</text><text fill="#000000" stroke="none" font-family="Arial" font-size="13px" font-style="normal" font-weight="bold" text-decoration="none" x="559.83642578125" y="271.5">parcheggio</text></g></g><g transform="translate(-70,-142) scale(1,1)"><path fill="#C0C0C0" stroke="none" d="M 463 450.5 C 463 430.8938896 522.0984064 415 595 415 C 667.9015936 415 727 430.8938896 727 450.5 C 727 470.1061104 667.9015936 486 595 486 C 522.0984064 486 463 470.1061104 463 450.5 Z" opacity="0.2"/></g><g transform="translate(-70,-142) scale(1,1)"><path fill="#ffffff" stroke="none" d="M 456 443.5 C 456 423.8938896 515.0984064 408 588 408 C 660.9015936 408 720 423.8938896 720 443.5 C 720 463.1061104 660.9015936 479 588 479 C 515.0984064 479 456 463.1061104 456 443.5 Z"/></g><g transform="translate(-70,-142) scale(1,1)"><path fill="none" stroke="#000000" d="M 456 443.5 C 456 423.8938896 515.0984064 408 588 408 C 660.9015936 408 720 423.8938896 720 443.5 C 720 463.1061104 660.9015936 479 588 479 C 515.0984064 479 456 463.1061104 456 443.5 Z" stroke-miterlimit="10"/></g><g transform="translate(-70,-142) scale(1,1)"><g><path fill="none" stroke="none"/><text fill="#000000" stroke="none" font-family="Arial" font-size="13px" font-style="normal" font-weight="bold" text-decoration="none" x="520.432373046875" y="444">UC17 Creazione di una</text><text fill="#000000" stroke="none" font-family="Arial" font-size="13px" font-style="normal" font-weight="bold" text-decoration="none" x="514.281494140625" y="457">piazzola in un parcheggio</text></g></g><g transform="translate(-70,-142) scale(1,1)"><path fill="#C0C0C0" stroke="none" d="M 479 537 C 479 522.6405952 529.1441024 511 591 511 C 652.8558976 511 703 522.6405952 703 537 C 703 551.3594048 652.8558976 563 591 563 C 529.1441024 563 479 551.3594048 479 537 Z" opacity="0.2"/></g><g transform="translate(-70,-142) scale(1,1)"><path fill="#ffffff" stroke="none" d="M 472 530 C 472 515.6405952 522.1441024 504 584 504 C 645.8558976 504 696 515.6405952 696 530 C 696 544.3594048 645.8558976 556 584 556 C 522.1441024 556 472 544.3594048 472 530 Z"/></g><g transform="translate(-70,-142) scale(1,1)"><path fill="none" stroke="#000000" d="M 472 530 C 472 515.6405952 522.1441024 504 584 504 C 645.8558976 504 696 515.6405952 696 530 C 696 544.3594048 645.8558976 556 584 556 C 522.1441024 556 472 544.3594048 472 530 Z" stroke-miterlimit="10"/></g><g transform="translate(-70,-142) scale(1,1)"><g><path fill="none" stroke="none"/><text fill="#000000" stroke="none" font-family="Arial" font-size="13px" font-style="normal" font-weight="bold" text-decoration="none" x="522.221435546875" y="530.5">UC18 Modifica dati di</text><text fill="#000000" stroke="none" font-family="Arial" font-size="13px" font-style="normal" font-weight="bold" text-decoration="none" x="547.5009765625" y="543.5">una piazzola</text></g></g><g transform="translate(-70,-142) scale(1,1)"><path fill="#C0C0C0" stroke="none" d="M 495 617 C 495 602.6405952 537.9806592 591 591 591 C 644.0193408 591 687 602.6405952 687 617 C 687 631.3594048 644.0193408 643 591 643 C 537.9806592 643 495 631.3594048 495 617 Z" opacity="0.2"/></g><g transform="translate(-70,-142) scale(1,1)"><path fill="#ffffff" stroke="none" d="M 488 610 C 488 595.6405952 530.9806592 584 584 584 C 637.0193408 584 680 595.6405952 680 610 C 680 624.3594048 637.0193408 636 584 636 C 530.9806592 636 488 624.3594048 488 610 Z"/></g><g transform="translate(-70,-142) scale(1,1)"><path fill="none" stroke="#000000" d="M 488 610 C 488 595.6405952 530.9806592 584 584 584 C 637.0193408 584 680 595.6405952 680 610 C 680 624.3594048 637.0193408 636 584 636 C 530.9806592 636 488 624.3594048 488 610 Z" stroke-miterlimit="10"/></g><g transform="translate(-70,-142) scale(1,1)"><g><path fill="none" stroke="none"/><text fill="#000000" stroke="none" font-family="Arial" font-size="13px" font-style="normal" font-weight="bold" text-decoration="none" x="528.724609375" y="610.5">UC19 Eliminazione</text><text fill="#000000" stroke="none" font-family="Arial" font-size="13px" font-style="normal" font-weight="bold" text-decoration="none" x="540.635986328125" y="623.5">di una piazzola</text></g></g><g transform="translate(-70,-142) scale(1,1)"><path fill="none" stroke="#000000" d="M 231 393 L 498 288" stroke-miterlimit="10"/></g><g transform="translate(-70,-142) scale(1,1)"><path fill="none" stroke="#000000" d="M 231 427 L 455 437" stroke-miterlimit="10"/></g><g transform="translate(-70,-142) scale(1,1)"><path fill="none" stroke="#000000" d="M 231 442 L 475 503" stroke-miterlimit="10"/></g><g transform="translate(-70,-142) scale(1,1)"><path fill="none" stroke="#000000" d="M 231 456 L 522 583" stroke-miterlimit="10"/></g><g transform="translate(-70,-142) scale(1,1)"><path fill="#C0C0C0" stroke="none" d="M 479 354.5 C 479 334.8938896 532.725824 319 599 319 C 665.274176 319 719 334.8938896 719 354.5 C 719 374.1061104 665.274176 390 599 390 C 532.725824 390 479 374.1061104 479 354.5 Z" opacity="0.2"/></g><g transform="translate(-70,-142) scale(1,1)"><path fill="#ffffff" stroke="none" d="M 472 347.5 C 472 327.8938896 525.725824 312 592 312 C 658.274176 312 712 327.8938896 712 347.5 C 712 367.1061104 658.274176 383 592 383 C 525.725824 383 472 367.1061104 472 347.5 Z"/></g><g transform="translate(-70,-142) scale(1,1)"><path fill="none" stroke="#000000" d="M 472 347.5 C 472 327.8938896 525.725824 312 592 312 C 658.274176 312 712 327.8938896 712 347.5 C 712 367.1061104 658.274176 383 592 383 C 525.725824 383 472 367.1061104 472 347.5 Z" stroke-miterlimit="10"/></g><g transform="translate(-70,-142) scale(1,1)"><g><path fill="none" stroke="none"/><text fill="#000000" stroke="none" font-family="Arial" font-size="13px" font-style="normal" font-weight="bold" text-decoration="none" x="517.938720703125" y="341.5">UC16 Ottenimento lista di</text><text fill="#000000" stroke="none" font-family="Arial" font-size="13px" font-style="normal" font-weight="bold" text-decoration="none" x="530.932373046875" y="354.5">tutte le piazzole di un</text><text fill="#000000" stroke="none" font-family="Arial" font-size="13px" font-style="normal" font-weight="bold" text-decoration="none" x="568.87548828125" y="367.5">sensore</text></g></g><g transform="translate(-70,-142) scale(1,1)"><path fill="none" stroke="#000000" d="M 231 410 L 471 368" stroke-miterlimit="10"/></g></g></svg>