<svg version="1.1" xmlns="http://www.w3.org/2000/svg" xmlns:xlink="http://www.w3.org/1999/xlink" width="651" height="172"><defs/><g><text fill="#eeeeee" stroke="none" font-family="Arial" font-size="24px" font-style="normal" font-weight="normal" text-decoration="none" x="0" y="0"></text><text fill="#eeeeee" stroke="none" font-family="Arial" font-size="24px" font-style="normal" font-weight="normal" text-decoration="none" x="0" y="30"></text><text fill="#eeeeee" stroke="none" font-family="Arial" font-size="24px" font-style="normal" font-weight="normal" text-decoration="none" x="0" y="60"></text><text fill="#eeeeee" stroke="none" font-family="Arial" font-size="24px" font-style="normal" font-weight="normal" text-decoration="none" x="0" y="90"></text><text fill="#eeeeee" stroke="none" font-family="Arial" font-size="24px" font-style="normal" font-weight="normal" text-decoration="none" x="0" y="120"></text><text fill="#eeeeee" stroke="none" font-family="Arial" font-size="24px" font-style="normal" font-weight="normal" text-decoration="none" x="0" y="150"></text><text fill="#eeeeee" stroke="none" font-family="Arial" font-size="24px" font-style="normal" font-weight="normal" text-decoration="none" x="200" y="0"></text><text fill="#eeeeee" stroke="none" font-family="Arial" font-size="24px" font-style="normal" font-weight="normal" text-decoration="none" x="200" y="30"></text><text fill="#eeeeee" stroke="none" font-family="Arial" font-size="24px" font-style="normal" font-weight="normal" text-decoration="none" x="200" y="60"></text><text fill="#eeeeee" stroke="none" font-family="Arial" font-size="24px" font-style="normal" font-weight="normal" text-decoration="none" x="200" y="90"></text><text fill="#eeeeee" stroke="none" font-family="Arial" font-size="24px" font-style="normal" font-weight="normal" text-decoration="none" x="200" y="120"></text><text fill="#eeeeee" stroke="none" font-family="Arial" font-size="24px" font-style="normal" font-weight="normal" text-decoration="none" x="200" y="150"></text><text fill="#eeeeee" stroke="none" font-family="Arial" font-size="24px" font-style="normal" font-weight="normal" text-decoration="none" x="400" y="0"></text><text fill="#eeeeee" stroke="none" font-family="Arial" font-size="24px" font-style="normal" font-weight="normal" text-decoration="none" x="400" y="30"></text><text fill="#eeeeee" stroke="none" font-family="Arial" font-size="24px" font-style="normal" font-weight="normal" text-decoration="none" x="400" y="60"></text><text fill="#eeeeee" stroke="none" font-family="Arial" font-size="24px" font-style="normal" font-weight="normal" text-decoration="none" x="400" y="90"></text><text fill="#eeeeee" stroke="none" font-family="Arial" font-size="24px" font-style="normal" font-weight="normal" text-decoration="none" x="400" y="120"></text><text fill="#eeeeee" stroke="none" font-family="Arial" font-size="24px" font-style="normal" font-weight="normal" text-decoration="none" x="400" y="150"></text><text fill="#eeeeee" stroke="none" font-family="Arial" font-size="24px" font-style="normal" font-weight="normal" text-decoration="none" x="600" y="0"></text><text fill="#eeeeee" stroke="none" font-family="Arial" font-size="24px" font-style="normal" font-weight="normal" text-decoration="none" x="600" y="30"></text><text fill="#eeeeee" stroke="none" font-family="Arial" font-size="24px" font-style="normal" font-weight="normal" text-decoration="none" x="600" y="60"></text><text fill="#eeeeee" stroke="none" font-family="Arial" font-size="24px" font-style="normal" font-weight="normal" text-decoration="none" x="600" y="90"></text><text fill="#eeeeee" stroke="none" font-family="Arial" font-size="24px" font-style="normal" font-weight="normal" text-decoration="none" x="600" y="120"></text><text fill="#eeeeee" stroke="none" font-family="Arial" font-size="24px" font-style="normal" font-weight="normal" text-decoration="none" x="600" y="150"></text><g transform="translate(-110,-254) scale(1,1)"><rect fill="#C0C0C0" stroke="none" x="415" y="271" width="343" height="152" opacity="0.2"/></g><g transform="translate(-110,-254) scale(1,1)"><rect fill="#ffffff" stroke="none" x="408" y="264" width="343" height="152"/></g><g transform="translate(-110,-254) scale(1,1)"><path fill="none" stroke="#000000" d="M 408 264 L 751 264 L 751 416 L 408 416 L 408 264 Z Z" stroke-miterlimit="10"/></g><g transform="translate(-110,-254) scale(1,1)"><g><path fill="none" stroke="none"/><text fill="#000000" stroke="none" font-family="Arial" font-size="13px" font-style="normal" font-weight="bold" text-decoration="none" x="544.457763671875" y="283.5">Misurazione</text></g></g><g transform="translate(-110,-254) scale(1,1)"><path fill="#ffffff" stroke="none" d="M 186.23845188210228 337.68 C 186.23845188210228 332.886167936 190.12429420704774 329 194.917724609375 329 C 199.71115501170226 329 203.59699733664772 332.886167936 203.59699733664772 337.68 C 203.59699733664772 342.473832064 199.71115501170226 346.36 194.917724609375 346.36 C 190.12429420704774 346.36 186.23845188210228 342.473832064 186.23845188210228 337.68 Z"/></g><g transform="translate(-110,-254) scale(1,1)"><path fill="none" stroke="#000000" d="M 186.23845188210228 337.68 C 186.23845188210228 332.886167936 190.12429420704774 329 194.917724609375 329 C 199.71115501170226 329 203.59699733664772 332.886167936 203.59699733664772 337.68 C 203.59699733664772 342.473832064 199.71115501170226 346.36 194.917724609375 346.36 C 190.12429420704774 346.36 186.23845188210228 342.473832064 186.23845188210228 337.68 Z" stroke-miterlimit="10"/></g><g transform="translate(-110,-254) scale(1,1)"><path fill="none" stroke="#000000" d="M 194.917724609375 346.36 L 194.917724609375 363.64" stroke-miterlimit="10"/></g><g transform="translate(-110,-254) scale(1,1)"><path fill="none" stroke="#000000" d="M 185.72790642755683 352.84 L 204.10754279119317 352.84" stroke-miterlimit="10"/></g><g transform="translate(-110,-254) scale(1,1)"><path fill="none" stroke="#000000" d="M 194.917724609375 363.64 L 182.15408824573865 381" stroke-miterlimit="10"/></g><g transform="translate(-110,-254) scale(1,1)"><path fill="none" stroke="#000000" d="M 194.917724609375 363.64 L 207.68136097301135 381" stroke-miterlimit="10"/></g><g transform="translate(-110,-254) scale(1,1)"><g><path fill="none" stroke="none"/><text fill="#000000" stroke="none" font-family="Arial" font-size="13px" font-style="normal" font-weight="bold" text-decoration="none" x="129.50830078125" y="401.5">Utente non autenticato</text></g></g><g transform="translate(-110,-254) scale(1,1)"><path fill="#C0C0C0" stroke="none" d="M 463 370.5 C 463 350.8938896 520.3075456 335 591 335 C 661.6924544 335 719 350.8938896 719 370.5 C 719 390.1061104 661.6924544 406 591 406 C 520.3075456 406 463 390.1061104 463 370.5 Z" opacity="0.2"/></g><g transform="translate(-110,-254) scale(1,1)"><path fill="#ffffff" stroke="none" d="M 456 363.5 C 456 343.8938896 513.3075456 328 584 328 C 654.6924544 328 712 343.8938896 712 363.5 C 712 383.1061104 654.6924544 399 584 399 C 513.3075456 399 456 383.1061104 456 363.5 Z"/></g><g transform="translate(-110,-254) scale(1,1)"><path fill="none" stroke="#000000" d="M 456 363.5 C 456 343.8938896 513.3075456 328 584 328 C 654.6924544 328 712 343.8938896 712 363.5 C 712 383.1061104 654.6924544 399 584 399 C 513.3075456 399 456 383.1061104 456 363.5 Z" stroke-miterlimit="10"/></g><g transform="translate(-110,-254) scale(1,1)"><g><path fill="none" stroke="none"/><text fill="#000000" stroke="none" font-family="Arial" font-size="13px" font-style="normal" font-weight="bold" text-decoration="none" x="511.024169921875" y="357.5">UC20 Ottenimento ultima</text><text fill="#000000" stroke="none" font-family="Arial" font-size="13px" font-style="normal" font-weight="bold" text-decoration="none" x="508.12646484375" y="370.5">misurazione di un sensore</text><text fill="#000000" stroke="none" font-family="Arial" font-size="13px" font-style="normal" font-weight="bold" text-decoration="none" x="544.971435546875" y="383.5">di parcheggio</text></g></g><g transform="translate(-110,-254) scale(1,1)"><path fill="none" stroke="#000000" d="M 271 366 L 455 364" stroke-miterlimit="10"/></g></g></svg>