<svg version="1.1" xmlns="http://www.w3.org/2000/svg" xmlns:xlink="http://www.w3.org/1999/xlink" width="691" height="523"><defs/><g><text fill="#eeeeee" stroke="none" font-family="Arial" font-size="24px" font-style="normal" font-weight="normal" text-decoration="none" x="0" y="0"></text><text fill="#eeeeee" stroke="none" font-family="Arial" font-size="24px" font-style="normal" font-weight="normal" text-decoration="none" x="0" y="30"></text><text fill="#eeeeee" stroke="none" font-family="Arial" font-size="24px" font-style="normal" font-weight="normal" text-decoration="none" x="0" y="60"></text><text fill="#eeeeee" stroke="none" font-family="Arial" font-size="24px" font-style="normal" font-weight="normal" text-decoration="none" x="0" y="90"></text><text fill="#eeeeee" stroke="none" font-family="Arial" font-size="24px" font-style="normal" font-weight="normal" text-decoration="none" x="0" y="120"></text><text fill="#eeeeee" stroke="none" font-family="Arial" font-size="24px" font-style="normal" font-weight="normal" text-decoration="none" x="0" y="150"></text><text fill="#eeeeee" stroke="none" font-family="Arial" font-size="24px" font-style="normal" font-weight="normal" text-decoration="none" x="0" y="180"></text><text fill="#eeeeee" stroke="none" font-family="Arial" font-size="24px" font-style="normal" font-weight="normal" text-decoration="none" x="0" y="210"></text><text fill="#eeeeee" stroke="none" font-family="Arial" font-size="24px" font-style="normal" font-weight="normal" text-decoration="none" x="0" y="240"></text><text fill="#eeeeee" stroke="none" font-family="Arial" font-size="24px" font-style="normal" font-weight="normal" text-decoration="none" x="0" y="270"></text><text fill="#eeeeee" stroke="none" font-family="Arial" font-size="24px" font-style="normal" font-weight="normal" text-decoration="none" x="0" y="300"></text><text fill="#eeeeee" stroke="none" font-family="Arial" font-size="24px" font-style="normal" font-weight="normal" text-decoration="none" x="0" y="330"></text><text fill="#eeeeee" stroke="none" font-family="Arial" font-size="24px" font-style="normal" font-weight="normal" text-decoration="none" x="0" y="360"></text><text fill="#eeeeee" stroke="none" font-family="Arial" font-size="24px" font-style="normal" font-weight="normal" text-decoration="none" x="0" y="390"></text><text fill="#eeeeee" stroke="none" font-family="Arial" font-size="24px" font-style="normal" font-weight="normal" text-decoration="none" x="0" y="420"></text><text fill="#eeeeee" stroke="none" font-family="Arial" font-size="24px" font-style="normal" font-weight="normal" text-decoration="none" x="0" y="450"></text><text fill="#eeeeee" stroke="none" font-family="Arial" font-size="24px" font-style="normal" font-weight="normal" text-decoration="none" x="0" y="480"></text><text fill="#eeeeee" stroke="none" font-family="Arial" font-size="24px" font-style="normal" font-weight="normal" text-decoration="none" x="0" y="510"></text><text fill="#eeeeee" stroke="none" font-family="Arial" font-size="24px" font-style="normal" font-weight="normal" text-decoration="none" x="200" y="0"></text><text fill="#eeeeee" stroke="none" font-family="Arial" font-size="24px" font-style="normal" font-weight="normal" text-decoration="none" x="200" y="30"></text><text fill="#eeeeee" stroke="none" font-family="Arial" font-size="24px" font-style="normal" font-weight="normal" text-decoration="none" x="200" y="60"></text><text fill="#eeeeee" stroke="none" font-family="Arial" font-size="24px" font-style="normal" font-weight="normal" text-decoration="none" x="200" y="90"></text><text fill="#eeeeee" stroke="none" font-family="Arial" font-size="24px" font-style="normal" font-weight="normal" text-decoration="none" x="200" y="120"></text><text fill="#eeeeee" stroke="none" font-family="Arial" font-size="24px" font-style="normal" font-weight="normal" text-decoration="none" x="200" y="150"></text><text fill="#eeeeee" stroke="none" font-family="Arial" font-size="24px" font-style="normal" font-weight="normal" text-decoration="none" x="200" y="180"></text><text fill="#eeeeee" stroke="none" font-family="Arial" font-size="24px" font-style="normal" font-weight="normal" text-decoration="none" x="200" y="210"></text><text fill="#eeeeee" stroke="none" font-family="Arial" font-size="24px" font-style="normal" font-weight="normal" text-decoration="none" x="200" y="240"></text><text fill="#eeeeee" stroke="none" font-family="Arial" font-size="24px" font-style="normal" font-weight="normal" text-decoration="none" x="200" y="270"></text><text fill="#eeeeee" stroke="none" font-family="Arial" font-size="24px" font-style="normal" font-weight="normal" text-decoration="none" x="200" y="300"></text><text fill="#eeeeee" stroke="none" font-family="Arial" font-size="24px" font-style="normal" font-weight="normal" text-decoration="none" x="200" y="330"></text><text fill="#eeeeee" stroke="none" font-family="Arial" font-size="24px" font-style="normal" font-weight="normal" text-decoration="none" x="200" y="360"></text><text fill="#eeeeee" stroke="none" font-family="Arial" font-size="24px" font-style="normal" font-weight="normal" text-decoration="none" x="200" y="390"></text><text fill="#eeeeee" stroke="none" font-family="Arial" font-size="24px" font-style="normal" font-weight="normal" text-decoration="none" x="200" y="420"></text><text fill="#eeeeee" stroke="none" font-family="Arial" font-size="24px" font-style="normal" font-weight="normal" text-decoration="none" x="200" y="450"></text><text fill="#eeeeee" stroke="none" font-family="Arial" font-size="24px" font-style="normal" font-weight="normal" text-decoration="none" x="200" y="480"></text><text fill="#eeeeee" stroke="none" font-family="Arial" font-size="24px" font-style="normal" font-weight="normal" text-decoration="none" x="200" y="510"></text><text fill="#eeeeee" stroke="none" font-family="Arial" font-size="24px" font-style="normal" font-weight="normal" text-decoration="none" x="400" y="0"></text><text fill="#eeeeee" stroke="none" font-family="Arial" font-size="24px" font-style="normal" font-weight="normal" text-decoration="none" x="400" y="30"></text><text fill="#eeeeee" stroke="none" font-family="Arial" font-size="24px" font-style="normal" font-weight="normal" text-decoration="none" x="400" y="60"></text><text fill="#eeeeee" stroke="none" font-family="Arial" font-size="24px" font-style="normal" font-weight="normal" text-decoration="none" x="400" y="90"></text><text fill="#eeeeee" stroke="none" font-family="Arial" font-size="24px" font-style="normal" font-weight="normal" text-decoration="none" x="400" y="120"></text><text fill="#eeeeee" stroke="none" font-family="Arial" font-size="24px" font-style="normal" font-weight="normal" text-decoration="none" x="400" y="150"></text><text fill="#eeeeee" stroke="none" font-family="Arial" font-size="24px" font-style="normal" font-weight="normal" text-decoration="none" x="400" y="180"></text><text fill="#eeeeee" stroke="none" font-family="Arial" font-size="24px" font-style="normal" font-weight="normal" text-decoration="none" x="400" y="210"></text><text fill="#eeeeee" stroke="none" font-family="Arial" font-size="24px" font-style="normal" font-weight="normal" text-decoration="none" x="400" y="240"></text><text fill="#eeeeee" stroke="none" font-family="Arial" font-size="24px" font-style="normal" font-weight="normal" text-decoration="none" x="400" y="270"></text><text fill="#eeeeee" stroke="none" font-family="Arial" font-size="24px" font-style="normal" font-weight="normal" text-decoration="none" x="400" y="300"></text><text fill="#eeeeee" stroke="none" font-family="Arial" font-size="24px" font-style="normal" font-weight="normal" text-decoration="none" x="400" y="330"></text><text fill="#eeeeee" stroke="none" font-family="Arial" font-size="24px" font-style="normal" font-weight="normal" text-decoration="none" x="400" y="360"></text><text fill="#eeeeee" stroke="none" font-family="Arial" font-size="24px" font-style="normal" font-weight="normal" text-decoration="none" x="400" y="390"></text><text fill="#eeeeee" stroke="none" font-family="Arial" font-size="24px" font-style="normal" font-weight="normal" text-decoration="none" x="400" y="420"></text><text fill="#eeeeee" stroke="none" font-family="Arial" font-size="24px" font-style="normal" font-weight="normal" text-decoration="none" x="400" y="450"></text><text fill="#eeeeee" stroke="none" font-family="Arial" font-size="24px" font-style="normal" font-weight="normal" text-decoration="none" x="400" y="480"></text><text fill="#eeeeee" stroke="none" font-family="Arial" font-size="24px" font-style="normal" font-weight="normal" text-decoration="none" x="400" y="510"></text><text fill="#eeeeee" stroke="none" font-family="Arial" font-size="24px" font-style="normal" font-weight="normal" text-decoration="none" x="600" y="0"></text><text fill="#eeeeee" stroke="none" font-family="Arial" font-size="24px" font-style="normal" font-weight="normal" text-decoration="none" x="600" y="30"></text><text fill="#eeeeee" stroke="none" font-family="Arial" font-size="24px" font-style="normal" font-weight="normal" text-decoration="none" x="600" y="60"></text><text fill="#eeeeee" stroke="none" font-family="Arial" font-size="24px" font-style="normal" font-weight="normal" text-decoration="none" x="600" y="90"></text><text fill="#eeeeee" stroke="none" font-family="Arial" font-size="24px" font-style="normal" font-weight="normal" text-decoration="none" x="600" y="120"></text><text fill="#eeeeee" stroke="none" font-family="Arial" font-size="24px" font-style="normal" font-weight="normal" text-decoration="none" x="600" y="150"></text><text fill="#eeeeee" stroke="none" font-family="Arial" font-size="24px" font-style="normal" font-weight="normal" text-decoration="none" x="600" y="180"></text><text fill="#eeeeee" stroke="none" font-family="Arial" font-size="24px" font-style="normal" font-weight="normal" text-decoration="none" x="600" y="210"></text><text fill="#eeeeee" stroke="none" font-family="Arial" font-size="24px" font-style="normal" font-weight="normal" text-decoration="none" x="600" y="240"></text><text fill="#eeeeee" stroke="none" font-family="Arial" font-size="24px" font-style="normal" font-weight="normal" text-decoration="none" x="600" y="270"></text><text fill="#eeeeee" stroke="none" font-family="Arial" font-size="24px" font-style="normal" font-weight="normal" text-decoration="none" x="600" y="300"></text><text fill="#eeeeee" stroke="none" font-family="Arial" font-size="24px" font-style="normal" font-weight="normal" text-decoration="none" x="600" y="330"></text><text fill="#eeeeee" stroke="none" font-family="Arial" font-size="24px" font-style="normal" font-weight="normal" text-decoration="none" x="600" y="360"></text><text fill="#eeeeee" stroke="none" font-family="Arial" font-size="24px" font-style="normal" font-weight="normal" text-decoration="none" x="600" y="390"></text><text fill="#eeeeee" stroke="none" font-family="Arial" font-size="24px" font-style="normal" font-weight="normal" text-decoration="none" x="600" y="420"></text><text fill="#eeeeee" stroke="none" font-family="Arial" font-size="24px" font-style="normal" font-weight="normal" text-decoration="none" x="600" y="450"></text><text fill="#eeeeee" stroke="none" font-family="Arial" font-size="24px" font-style="normal" font-weight="normal" text-decoration="none" x="600" y="480"></text><text fill="#eeeeee" stroke="none" font-family="Arial" font-size="24px" font-style="normal" font-weight="normal" text-decoration="none" x="600" y="510"></text><g transform="translate(-110,-102) scale(1,1)"><rect fill="#C0C0C0" stroke="none" x="335" y="119" width="463" height="503" opacity="0.2"/></g><g transform="translate(-110,-102) scale(1,1)"><rect fill="#ffffff" stroke="none" x="328" y="112" width="463" height="503"/></g><g transform="translate(-110,-102) scale(1,1)"><path fill="none" stroke="#000000" d="M 328 112 L 791 112 L 791 615 L 328 615 L 328 112 Z Z" stroke-miterlimit="10"/></g><g transform="translate(-110,-102) scale(1,1)"><g><path fill="none" stroke="none"/><text fill="#000000" stroke="none" font-family="Arial" font-size="13px" font-style="normal" font-weight="bold" text-decoration="none" x="526.615966796875" y="131.5">Parcheggio</text></g></g><g transform="translate(-110,-102) scale(1,1)"><path fill="#ffffff" stroke="none" d="M 186.23845188210228 329.68 C 186.23845188210228 324.886167936 190.12429420704774 321 194.917724609375 321 C 199.71115501170226 321 203.59699733664772 324.886167936 203.59699733664772 329.68 C 203.59699733664772 334.473832064 199.71115501170226 338.36 194.917724609375 338.36 C 190.12429420704774 338.36 186.23845188210228 334.473832064 186.23845188210228 329.68 Z"/></g><g transform="translate(-110,-102) scale(1,1)"><path fill="none" stroke="#000000" d="M 186.23845188210228 329.68 C 186.23845188210228 324.886167936 190.12429420704774 321 194.917724609375 321 C 199.71115501170226 321 203.59699733664772 324.886167936 203.59699733664772 329.68 C 203.59699733664772 334.473832064 199.71115501170226 338.36 194.917724609375 338.36 C 190.12429420704774 338.36 186.23845188210228 334.473832064 186.23845188210228 329.68 Z" stroke-miterlimit="10"/></g><g transform="translate(-110,-102) scale(1,1)"><path fill="none" stroke="#000000" d="M 194.917724609375 338.36 L 194.917724609375 355.64" stroke-miterlimit="10"/></g><g transform="translate(-110,-102) scale(1,1)"><path fill="none" stroke="#000000" d="M 185.72790642755683 344.84 L 204.10754279119317 344.84" stroke-miterlimit="10"/></g><g transform="translate(-110,-102) scale(1,1)"><path fill="none" stroke="#000000" d="M 194.917724609375 355.64 L 182.15408824573865 373" stroke-miterlimit="10"/></g><g transform="translate(-110,-102) scale(1,1)"><path fill="none" stroke="#000000" d="M 194.917724609375 355.64 L 207.68136097301135 373" stroke-miterlimit="10"/></g><g transform="translate(-110,-102) scale(1,1)"><g><path fill="none" stroke="none"/><text fill="#000000" stroke="none" font-family="Arial" font-size="13px" font-style="normal" font-weight="bold" text-decoration="none" x="129.50830078125" y="393.5">Utente non autenticato</text></g></g><g transform="translate(-110,-102) scale(1,1)"><path fill="#C0C0C0" stroke="none" d="M 463 217 C 463 202.6405952 513.1441024 191 575 191 C 636.8558976 191 687 202.6405952 687 217 C 687 231.3594048 636.8558976 243 575 243 C 513.1441024 243 463 231.3594048 463 217 Z" opacity="0.2"/></g><g transform="translate(-110,-102) scale(1,1)"><path fill="#ffffff" stroke="none" d="M 456 210 C 456 195.6405952 506.1441024 184 568 184 C 629.8558976 184 680 195.6405952 680 210 C 680 224.3594048 629.8558976 236 568 236 C 506.1441024 236 456 224.3594048 456 210 Z"/></g><g transform="translate(-110,-102) scale(1,1)"><path fill="none" stroke="#000000" d="M 456 210 C 456 195.6405952 506.1441024 184 568 184 C 629.8558976 184 680 195.6405952 680 210 C 680 224.3594048 629.8558976 236 568 236 C 506.1441024 236 456 224.3594048 456 210 Z" stroke-miterlimit="10"/></g><g transform="translate(-110,-102) scale(1,1)"><g><path fill="none" stroke="none"/><text fill="#000000" stroke="none" font-family="Arial" font-size="13px" font-style="normal" font-weight="bold" text-decoration="none" x="504.418701171875" y="210.5">UC1 Ottenimento lista</text><text fill="#000000" stroke="none" font-family="Arial" font-size="13px" font-style="normal" font-weight="bold" text-decoration="none" x="517.0537109375" y="223.5">di tutti i parcheggi</text></g></g><g transform="translate(-110,-102) scale(1,1)"><path fill="#C0C0C0" stroke="none" d="M 439 298.5 C 439 278.8938896 499.8892672 263 575 263 C 650.1107328 263 711 278.8938896 711 298.5 C 711 318.1061104 650.1107328 334 575 334 C 499.8892672 334 439 318.1061104 439 298.5 Z" opacity="0.2"/></g><g transform="translate(-110,-102) scale(1,1)"><path fill="#ffffff" stroke="none" d="M 432 291.5 C 432 271.8938896 492.8892672 256 568 256 C 643.1107328 256 704 271.8938896 704 291.5 C 704 311.1061104 643.1107328 327 568 327 C 492.8892672 327 432 311.1061104 432 291.5 Z"/></g><g transform="translate(-110,-102) scale(1,1)"><path fill="none" stroke="#000000" d="M 432 291.5 C 432 271.8938896 492.8892672 256 568 256 C 643.1107328 256 704 271.8938896 704 291.5 C 704 311.1061104 643.1107328 327 568 327 C 492.8892672 327 432 311.1061104 432 291.5 Z" stroke-miterlimit="10"/></g><g transform="translate(-110,-102) scale(1,1)"><g><path fill="none" stroke="none"/><text fill="#000000" stroke="none" font-family="Arial" font-size="13px" font-style="normal" font-weight="bold" text-decoration="none" x="489.596923828125" y="292">UC2 Ottenimento dati di un</text><text fill="#000000" stroke="none" font-family="Arial" font-size="13px" font-style="normal" font-weight="bold" text-decoration="none" x="535.83642578125" y="305">parcheggio</text></g></g><g transform="translate(-110,-102) scale(1,1)"><path fill="#C0C0C0" stroke="none" d="M 439 385 C 439 370.6405952 499.8892672 359 575 359 C 650.1107328 359 711 370.6405952 711 385 C 711 399.3594048 650.1107328 411 575 411 C 499.8892672 411 439 399.3594048 439 385 Z" opacity="0.2"/></g><g transform="translate(-110,-102) scale(1,1)"><path fill="#ffffff" stroke="none" d="M 432 378 C 432 363.6405952 492.8892672 352 568 352 C 643.1107328 352 704 363.6405952 704 378 C 704 392.3594048 643.1107328 404 568 404 C 492.8892672 404 432 392.3594048 432 378 Z"/></g><g transform="translate(-110,-102) scale(1,1)"><path fill="none" stroke="#000000" d="M 432 378 C 432 363.6405952 492.8892672 352 568 352 C 643.1107328 352 704 363.6405952 704 378 C 704 392.3594048 643.1107328 404 568 404 C 492.8892672 404 432 392.3594048 432 378 Z" stroke-miterlimit="10"/></g><g transform="translate(-110,-102) scale(1,1)"><g><path fill="none" stroke="none"/><text fill="#000000" stroke="none" font-family="Arial" font-size="13px" font-style="normal" font-weight="bold" text-decoration="none" x="507.662353515625" y="378.5">UC3 Creazione di un</text><text fill="#000000" stroke="none" font-family="Arial" font-size="13px" font-style="normal" font-weight="bold" text-decoration="none" x="535.83642578125" y="391.5">parcheggio</text></g></g><g transform="translate(-110,-102) scale(1,1)"><path fill="#C0C0C0" stroke="none" d="M 447 466.5 C 447 446.8938896 504.3075456 431 575 431 C 645.6924544 431 703 446.8938896 703 466.5 C 703 486.1061104 645.6924544 502 575 502 C 504.3075456 502 447 486.1061104 447 466.5 Z" opacity="0.2"/></g><g transform="translate(-110,-102) scale(1,1)"><path fill="#ffffff" stroke="none" d="M 440 459.5 C 440 439.8938896 497.3075456 424 568 424 C 638.6924544 424 696 439.8938896 696 459.5 C 696 479.1061104 638.6924544 495 568 495 C 497.3075456 495 440 479.1061104 440 459.5 Z"/></g><g transform="translate(-110,-102) scale(1,1)"><path fill="none" stroke="#000000" d="M 440 459.5 C 440 439.8938896 497.3075456 424 568 424 C 638.6924544 424 696 439.8938896 696 459.5 C 696 479.1061104 638.6924544 495 568 495 C 497.3075456 495 440 479.1061104 440 459.5 Z" stroke-miterlimit="10"/></g><g transform="translate(-110,-102) scale(1,1)"><g><path fill="none" stroke="none"/><text fill="#000000" stroke="none" font-family="Arial" font-size="13px" font-style="normal" font-weight="bold" text-decoration="none" x="500.800537109375" y="460">UC4 Modifica dati di un</text><text fill="#000000" stroke="none" font-family="Arial" font-size="13px" font-style="normal" font-weight="bold" text-decoration="none" x="535.83642578125" y="473">parcheggio</text></g></g><g transform="translate(-110,-102) scale(1,1)"><path fill="#C0C0C0" stroke="none" d="M 447 562.5 C 447 542.8938896 506.0984064 527 579 527 C 651.9015936 527 711 542.8938896 711 562.5 C 711 582.1061104 651.9015936 598 579 598 C 506.0984064 598 447 582.1061104 447 562.5 Z" opacity="0.2"/></g><g transform="translate(-110,-102) scale(1,1)"><path fill="#ffffff" stroke="none" d="M 440 555.5 C 440 535.8938896 499.0984064 520 572 520 C 644.9015936 520 704 535.8938896 704 555.5 C 704 575.1061104 644.9015936 591 572 591 C 499.0984064 591 440 575.1061104 440 555.5 Z"/></g><g transform="translate(-110,-102) scale(1,1)"><path fill="none" stroke="#000000" d="M 440 555.5 C 440 535.8938896 499.0984064 520 572 520 C 644.9015936 520 704 535.8938896 704 555.5 C 704 575.1061104 644.9015936 591 572 591 C 499.0984064 591 440 575.1061104 440 555.5 Z" stroke-miterlimit="10"/></g><g transform="translate(-110,-102) scale(1,1)"><g><path fill="none" stroke="none"/><text fill="#000000" stroke="none" font-family="Arial" font-size="13px" font-style="normal" font-weight="bold" text-decoration="none" x="504.438720703125" y="556">UC5 Eliminazione di un</text><text fill="#000000" stroke="none" font-family="Arial" font-size="13px" font-style="normal" font-weight="bold" text-decoration="none" x="539.83642578125" y="569">parcheggio</text></g></g><g transform="translate(-110,-102) scale(1,1)"><path fill="none" stroke="#000000" d="M 271 328 L 500 237" stroke-miterlimit="10"/></g><g transform="translate(-110,-102) scale(1,1)"><path fill="none" stroke="#000000" d="M 271 345 L 431 316" stroke-miterlimit="10"/></g><g transform="translate(-110,-102) scale(1,1)"><path fill="none" stroke="#000000" d="M 271 363 L 431 371" stroke-miterlimit="10"/></g><g transform="translate(-110,-102) scale(1,1)"><path fill="none" stroke="#000000" d="M 271 380 L 439 425" stroke-miterlimit="10"/></g><g transform="translate(-110,-102) scale(1,1)"><path fill="none" stroke="#000000" d="M 271 399 L 503 519" stroke-miterlimit="10"/></g></g></svg>