<svg version="1.1" xmlns="http://www.w3.org/2000/svg" xmlns:xlink="http://www.w3.org/1999/xlink" width="643" height="460"><defs/><g><text fill="#eeeeee" stroke="none" font-family="Arial" font-size="24px" font-style="normal" font-weight="normal" text-decoration="none" x="0" y="0"></text><text fill="#eeeeee" stroke="none" font-family="Arial" font-size="24px" font-style="normal" font-weight="normal" text-decoration="none" x="0" y="30"></text><text fill="#eeeeee" stroke="none" font-family="Arial" font-size="24px" font-style="normal" font-weight="normal" text-decoration="none" x="0" y="60"></text><text fill="#eeeeee" stroke="none" font-family="Arial" font-size="24px" font-style="normal" font-weight="normal" text-decoration="none" x="0" y="90"></text><text fill="#eeeeee" stroke="none" font-family="Arial" font-size="24px" font-style="normal" font-weight="normal" text-decoration="none" x="0" y="120"></text><text fill="#eeeeee" stroke="none" font-family="Arial" font-size="24px" font-style="normal" font-weight="normal" text-decoration="none" x="0" y="150"></text><text fill="#eeeeee" stroke="none" font-family="Arial" font-size="24px" font-style="normal" font-weight="normal" text-decoration="none" x="0" y="180"></text><text fill="#eeeeee" stroke="none" font-family="Arial" font-size="24px" font-style="normal" font-weight="normal" text-decoration="none" x="0" y="210"></text><text fill="#eeeeee" stroke="none" font-family="Arial" font-size="24px" font-style="normal" font-weight="normal" text-decoration="none" x="0" y="240"></text><text fill="#eeeeee" stroke="none" font-family="Arial" font-size="24px" font-style="normal" font-weight="normal" text-decoration="none" x="0" y="270"></text><text fill="#eeeeee" stroke="none" font-family="Arial" font-size="24px" font-style="normal" font-weight="normal" text-decoration="none" x="0" y="300"></text><text fill="#eeeeee" stroke="none" font-family="Arial" font-size="24px" font-style="normal" font-weight="normal" text-decoration="none" x="0" y="330"></text><text fill="#eeeeee" stroke="none" font-family="Arial" font-size="24px" font-style="normal" font-weight="normal" text-decoration="none" x="0" y="360"></text><text fill="#eeeeee" stroke="none" font-family="Arial" font-size="24px" font-style="normal" font-weight="normal" text-decoration="none" x="0" y="390"></text><text fill="#eeeeee" stroke="none" font-family="Arial" font-size="24px" font-style="normal" font-weight="normal" text-decoration="none" x="0" y="420"></text><text fill="#eeeeee" stroke="none" font-family="Arial" font-size="24px" font-style="normal" font-weight="normal" text-decoration="none" x="0" y="450"></text><text fill="#eeeeee" stroke="none" font-family="Arial" font-size="24px" font-style="normal" font-weight="normal" text-decoration="none" x="200" y="0"></text><text fill="#eeeeee" stroke="none" font-family="Arial" font-size="24px" font-style="normal" font-weight="normal" text-decoration="none" x="200" y="30"></text><text fill="#eeeeee" stroke="none" font-family="Arial" font-size="24px" font-style="normal" font-weight="normal" text-decoration="none" x="200" y="60"></text><text fill="#eeeeee" stroke="none" font-family="Arial" font-size="24px" font-style="normal" font-weight="normal" text-decoration="none" x="200" y="90"></text><text fill="#eeeeee" stroke="none" font-family="Arial" font-size="24px" font-style="normal" font-weight="normal" text-decoration="none" x="200" y="120"></text><text fill="#eeeeee" stroke="none" font-family="Arial" font-size="24px" font-style="normal" font-weight="normal" text-decoration="none" x="200" y="150"></text><text fill="#eeeeee" stroke="none" font-family="Arial" font-size="24px" font-style="normal" font-weight="normal" text-decoration="none" x="200" y="180"></text><text fill="#eeeeee" stroke="none" font-family="Arial" font-size="24px" font-style="normal" font-weight="normal" text-decoration="none" x="200" y="210"></text><text fill="#eeeeee" stroke="none" font-family="Arial" font-size="24px" font-style="normal" font-weight="normal" text-decoration="none" x="200" y="240"></text><text fill="#eeeeee" stroke="none" font-family="Arial" font-size="24px" font-style="normal" font-weight="normal" text-decoration="none" x="200" y="270"></text><text fill="#eeeeee" stroke="none" font-family="Arial" font-size="24px" font-style="normal" font-weight="normal" text-decoration="none" x="200" y="300"></text><text fill="#eeeeee" stroke="none" font-family="Arial" font-size="24px" font-style="normal" font-weight="normal" text-decoration="none" x="200" y="330"></text><text fill="#eeeeee" stroke="none" font-family="Arial" font-size="24px" font-style="normal" font-weight="normal" text-decoration="none" x="200" y="360"></text><text fill="#eeeeee" stroke="none" font-family="Arial" font-size="24px" font-style="normal" font-weight="normal" text-decoration="none" x="200" y="390"></text><text fill="#eeeeee" stroke="none" font-family="Arial" font-size="24px" font-style="normal" font-weight="normal" text-decoration="none" x="200" y="420"></text><text fill="#eeeeee" stroke="none" font-family="Arial" font-size="24px" font-style="normal" font-weight="normal" text-decoration="none" x="200" y="450"></text><text fill="#eeeeee" stroke="none" font-family="Arial" font-size="24px" font-style="normal" font-weight="normal" text-decoration="none" x="400" y="0"></text><text fill="#eeeeee" stroke="none" font-family="Arial" font-size="24px" font-style="normal" font-weight="normal" text-decoration="none" x="400" y="30"></text><text fill="#eeeeee" stroke="none" font-family="Arial" font-size="24px" font-style="normal" font-weight="normal" text-decoration="none" x="400" y="60"></text><text fill="#eeeeee" stroke="none" font-family="Arial" font-size="24px" font-style="normal" font-weight="normal" text-decoration="none" x="400" y="90"></text><text fill="#eeeeee" stroke="none" font-family="Arial" font-size="24px" font-style="normal" font-weight="normal" text-decoration="none" x="400" y="120"></text><text fill="#eeeeee" stroke="none" font-family="Arial" font-size="24px" font-style="normal" font-weight="normal" text-decoration="none" x="400" y="150"></text><text fill="#eeeeee" stroke="none" font-family="Arial" font-size="24px" font-style="normal" font-weight="normal" text-decoration="none" x="400" y="180"></text><text fill="#eeeeee" stroke="none" font-family="Arial" font-size="24px" font-style="normal" font-weight="normal" text-decoration="none" x="400" y="210"></text><text fill="#eeeeee" stroke="none" font-family="Arial" font-size="24px" font-style="normal" font-weight="normal" text-decoration="none" x="400" y="240"></text><text fill="#eeeeee" stroke="none" font-family="Arial" font-size="24px" font-style="normal" font-weight="normal" text-decoration="none" x="400" y="270"></text><text fill="#eeeeee" stroke="none" font-family="Arial" font-size="24px" font-style="normal" font-weight="normal" text-decoration="none" x="400" y="300"></text><text fill="#eeeeee" stroke="none" font-family="Arial" font-size="24px" font-style="normal" font-weight="normal" text-decoration="none" x="400" y="330"></text><text fill="#eeeeee" stroke="none" font-family="Arial" font-size="24px" font-style="normal" font-weight="normal" text-decoration="none" x="400" y="360"></text><text fill="#eeeeee" stroke="none" font-family="Arial" font-size="24px" font-style="normal" font-weight="normal" text-decoration="none" x="400" y="390"></text><text fill="#eeeeee" stroke="none" font-family="Arial" font-size="24px" font-style="normal" font-weight="normal" text-decoration="none" x="400" y="420"></text><text fill="#eeeeee" stroke="none" font-family="Arial" font-size="24px" font-style="normal" font-weight="normal" text-decoration="none" x="400" y="450"></text><text fill="#eeeeee" stroke="none" font-family="Arial" font-size="24px" font-style="normal" font-weight="normal" text-decoration="none" x="600" y="0"></text><text fill="#eeeeee" stroke="none" font-family="Arial" font-size="24px" font-style="normal" font-weight="normal" text-decoration="none" x="600" y="30"></text><text fill="#eeeeee" stroke="none" font-family="Arial" font-size="24px" font-style="normal" font-weight="normal" text-decoration="none" x="600" y="60"></text><text fill="#eeeeee" stroke="none" font-family="Arial" font-size="24px" font-style="normal" font-weight="normal" text-decoration="none" x="600" y="90"></text><text fill="#eeeeee" stroke="none" font-family="Arial" font-size="24px" font-style="normal" font-weight="normal" text-decoration="none" x="600" y="120"></text><text fill="#eeeeee" stroke="none" font-family="Arial" font-size="24px" font-style="normal" font-weight="normal" text-decoration="none" x="600" y="150"></text><text fill="#eeeeee" stroke="none" font-family="Arial" font-size="24px" font-style="normal" font-weight="normal" text-decoration="none" x="600" y="180"></text><text fill="#eeeeee" stroke="none" font-family="Arial" font-size="24px" font-style="normal" font-weight="normal" text-decoration="none" x="600" y="210"></text><text fill="#eeeeee" stroke="none" font-family="Arial" font-size="24px" font-style="normal" font-weight="normal" text-decoration="none" x="600" y="240"></text><text fill="#eeeeee" stroke="none" font-family="Arial" font-size="24px" font-style="normal" font-weight="normal" text-decoration="none" x="600" y="270"></text><text fill="#eeeeee" stroke="none" font-family="Arial" font-size="24px" font-style="normal" font-weight="normal" text-decoration="none" x="600" y="300"></text><text fill="#eeeeee" stroke="none" font-family="Arial" font-size="24px" font-style="normal" font-weight="normal" text-decoration="none" x="600" y="330"></text><text fill="#eeeeee" stroke="none" font-family="Arial" font-size="24px" font-style="normal" font-weight="normal" text-decoration="none" x="600" y="360"></text><text fill="#eeeeee" stroke="none" font-family="Arial" font-size="24px" font-style="normal" font-weight="normal" text-decoration="none" x="600" y="390"></text><text fill="#eeeeee" stroke="none" font-family="Arial" font-size="24px" font-style="normal" font-weight="normal" text-decoration="none" x="600" y="420"></text><text fill="#eeeeee" stroke="none" font-family="Arial" font-size="24px" font-style="normal" font-weight="normal" text-decoration="none" x="600" y="450"></text><g transform="translate(-78,-94) scale(1,1)"><rect fill="#C0C0C0" stroke="none" x="367" y="111" width="351" height="440" opacity="0.2"/></g><g transform="translate(-78,-94) scale(1,1)"><rect fill="#ffffff" stroke="none" x="360" y="104" width="351" height="440"/></g><g transform="translate(-78,-94) scale(1,1)"><path fill="none" stroke="#000000" d="M 360 104 L 711 104 L 711 544 L 360 544 L 360 104 Z Z" stroke-miterlimit="10"/></g><g transform="translate(-78,-94) scale(1,1)"><g><path fill="none" stroke="none"/><text fill="#000000" stroke="none" font-family="Arial" font-size="13px" font-style="normal" font-weight="bold" text-decoration="none" x="511.2900390625" y="123.5">Sensore</text></g></g><g transform="translate(-78,-94) scale(1,1)"><path fill="#ffffff" stroke="none" d="M 154.23845188210228 233.68 C 154.23845188210228 228.886167936 158.12429420704774 225 162.917724609375 225 C 167.71115501170226 225 171.59699733664772 228.886167936 171.59699733664772 233.68 C 171.59699733664772 238.47383206400002 167.71115501170226 242.36 162.917724609375 242.36 C 158.12429420704774 242.36 154.23845188210228 238.47383206400002 154.23845188210228 233.68 Z"/></g><g transform="translate(-78,-94) scale(1,1)"><path fill="none" stroke="#000000" d="M 154.23845188210228 233.68 C 154.23845188210228 228.886167936 158.12429420704774 225 162.917724609375 225 C 167.71115501170226 225 171.59699733664772 228.886167936 171.59699733664772 233.68 C 171.59699733664772 238.47383206400002 167.71115501170226 242.36 162.917724609375 242.36 C 158.12429420704774 242.36 154.23845188210228 238.47383206400002 154.23845188210228 233.68 Z" stroke-miterlimit="10"/></g><g transform="translate(-78,-94) scale(1,1)"><path fill="none" stroke="#000000" d="M 162.917724609375 242.36 L 162.917724609375 259.64" stroke-miterlimit="10"/></g><g transform="translate(-78,-94) scale(1,1)"><path fill="none" stroke="#000000" d="M 153.72790642755683 248.84 L 172.10754279119317 248.84" stroke-miterlimit="10"/></g><g transform="translate(-78,-94) scale(1,1)"><path fill="none" stroke="#000000" d="M 162.917724609375 259.64 L 150.15408824573865 277" stroke-miterlimit="10"/></g><g transform="translate(-78,-94) scale(1,1)"><path fill="none" stroke="#000000" d="M 162.917724609375 259.64 L 175.68136097301135 277" stroke-miterlimit="10"/></g><g transform="translate(-78,-94) scale(1,1)"><g><path fill="none" stroke="none"/><text fill="#000000" stroke="none" font-family="Arial" font-size="13px" font-style="normal" font-weight="bold" text-decoration="none" x="97.50830078125" y="297.5">Utente non autenticato</text></g></g><g transform="translate(-78,-94) scale(1,1)"><path fill="#C0C0C0" stroke="none" d="M 463 185 C 463 170.6405952 507.77152 159 563 159 C 618.22848 159 663 170.6405952 663 185 C 663 199.3594048 618.22848 211 563 211 C 507.77152 211 463 199.3594048 463 185 Z" opacity="0.2"/></g><g transform="translate(-78,-94) scale(1,1)"><path fill="#ffffff" stroke="none" d="M 456 178 C 456 163.6405952 500.77152 152 556 152 C 611.22848 152 656 163.6405952 656 178 C 656 192.3594048 611.22848 204 556 204 C 500.77152 204 456 192.3594048 456 178 Z"/></g><g transform="translate(-78,-94) scale(1,1)"><path fill="none" stroke="#000000" d="M 456 178 C 456 163.6405952 500.77152 152 556 152 C 611.22848 152 656 163.6405952 656 178 C 656 192.3594048 611.22848 204 556 204 C 500.77152 204 456 192.3594048 456 178 Z" stroke-miterlimit="10"/></g><g transform="translate(-78,-94) scale(1,1)"><g><path fill="none" stroke="none"/><text fill="#000000" stroke="none" font-family="Arial" font-size="13px" font-style="normal" font-weight="bold" text-decoration="none" x="502.651123046875" y="178.5">UC11 Ottenimento</text><text fill="#000000" stroke="none" font-family="Arial" font-size="13px" font-style="normal" font-weight="bold" text-decoration="none" x="499.28369140625" y="191.5">lista di tutti i sensori</text></g></g><g transform="translate(-78,-94) scale(1,1)"><path fill="#C0C0C0" stroke="none" d="M 447 274.5 C 447 254.8938896 497.1441024 239 559 239 C 620.8558976 239 671 254.8938896 671 274.5 C 671 294.1061104 620.8558976 310 559 310 C 497.1441024 310 447 294.1061104 447 274.5 Z" opacity="0.2"/></g><g transform="translate(-78,-94) scale(1,1)"><path fill="#ffffff" stroke="none" d="M 440 267.5 C 440 247.8938896 490.1441024 232 552 232 C 613.8558976 232 664 247.8938896 664 267.5 C 664 287.1061104 613.8558976 303 552 303 C 490.1441024 303 440 287.1061104 440 267.5 Z"/></g><g transform="translate(-78,-94) scale(1,1)"><path fill="none" stroke="#000000" d="M 440 267.5 C 440 247.8938896 490.1441024 232 552 232 C 613.8558976 232 664 247.8938896 664 267.5 C 664 287.1061104 613.8558976 303 552 303 C 490.1441024 303 440 287.1061104 440 267.5 Z" stroke-miterlimit="10"/></g><g transform="translate(-78,-94) scale(1,1)"><g><path fill="none" stroke="none"/><text fill="#000000" stroke="none" font-family="Arial" font-size="13px" font-style="normal" font-weight="bold" text-decoration="none" x="485.8828125" y="268">UC12 Ottenimento dati</text><text fill="#000000" stroke="none" font-family="Arial" font-size="13px" font-style="normal" font-weight="bold" text-decoration="none" x="512.974609375" y="281">di un sensore</text></g></g><g transform="translate(-78,-94) scale(1,1)"><path fill="#C0C0C0" stroke="none" d="M 447 379.5 C 447 354.9233264 497.1441024 335 559 335 C 620.8558976 335 671 354.9233264 671 379.5 C 671 404.0766736 620.8558976 424 559 424 C 497.1441024 424 447 404.0766736 447 379.5 Z" opacity="0.2"/></g><g transform="translate(-78,-94) scale(1,1)"><path fill="#ffffff" stroke="none" d="M 440 372.5 C 440 347.9233264 490.1441024 328 552 328 C 613.8558976 328 664 347.9233264 664 372.5 C 664 397.0766736 613.8558976 417 552 417 C 490.1441024 417 440 397.0766736 440 372.5 Z"/></g><g transform="translate(-78,-94) scale(1,1)"><path fill="none" stroke="#000000" d="M 440 372.5 C 440 347.9233264 490.1441024 328 552 328 C 613.8558976 328 664 347.9233264 664 372.5 C 664 397.0766736 613.8558976 417 552 417 C 490.1441024 417 440 397.0766736 440 372.5 Z" stroke-miterlimit="10"/></g><g transform="translate(-78,-94) scale(1,1)"><g><path fill="none" stroke="none"/><text fill="#000000" stroke="none" font-family="Arial" font-size="13px" font-style="normal" font-weight="bold" text-decoration="none" x="484.8037109375" y="366.5">UC13 Ottenimento lista</text><text fill="#000000" stroke="none" font-family="Arial" font-size="13px" font-style="normal" font-weight="bold" text-decoration="none" x="489.1328125" y="379.5">di tutti i sensori di una</text><text fill="#000000" stroke="none" font-family="Arial" font-size="13px" font-style="normal" font-weight="bold" text-decoration="none" x="528.15185546875" y="392.5">piazzola</text></g></g><g transform="translate(-78,-94) scale(1,1)"><path fill="none" stroke="#000000" d="M 239 246 L 455 200" stroke-miterlimit="10"/></g><g transform="translate(-78,-94) scale(1,1)"><path fill="none" stroke="#000000" d="M 239 264 L 439 266" stroke-miterlimit="10"/></g><g transform="translate(-78,-94) scale(1,1)"><path fill="none" stroke="#000000" d="M 239 284 L 439 340" stroke-miterlimit="10"/></g><g transform="translate(-78,-94) scale(1,1)"><path fill="#C0C0C0" stroke="none" d="M 455 491.5 C 455 466.9233264 501.5623808 447 559 447 C 616.4376192 447 663 466.9233264 663 491.5 C 663 516.0766736 616.4376192 536 559 536 C 501.5623808 536 455 516.0766736 455 491.5 Z" opacity="0.2"/></g><g transform="translate(-78,-94) scale(1,1)"><path fill="#ffffff" stroke="none" d="M 448 484.5 C 448 459.9233264 494.5623808 440 552 440 C 609.4376192 440 656 459.9233264 656 484.5 C 656 509.0766736 609.4376192 529 552 529 C 494.5623808 529 448 509.0766736 448 484.5 Z"/></g><g transform="translate(-78,-94) scale(1,1)"><path fill="none" stroke="#000000" d="M 448 484.5 C 448 459.9233264 494.5623808 440 552 440 C 609.4376192 440 656 459.9233264 656 484.5 C 656 509.0766736 609.4376192 529 552 529 C 494.5623808 529 448 509.0766736 448 484.5 Z" stroke-miterlimit="10"/></g><g transform="translate(-78,-94) scale(1,1)"><g><path fill="none" stroke="none"/><text fill="#000000" stroke="none" font-family="Arial" font-size="13px" font-style="normal" font-weight="bold" text-decoration="none" x="493.833251953125" y="472">UC14 Modifica dello</text><text fill="#000000" stroke="none" font-family="Arial" font-size="13px" font-style="normal" font-weight="bold" text-decoration="none" x="531.043212890625" y="485">stato di</text><text fill="#000000" stroke="none" font-family="Arial" font-size="13px" font-style="normal" font-weight="bold" text-decoration="none" x="495.2646484375" y="498">manutenzione di un</text><text fill="#000000" stroke="none" font-family="Arial" font-size="13px" font-style="normal" font-weight="bold" text-decoration="none" x="528.87548828125" y="511">sensore</text></g></g><g transform="translate(-78,-94) scale(1,1)"><path fill="none" stroke="#000000" d="M 234 304 L 473 439" stroke-miterlimit="10"/></g></g></svg>