<svg version="1.1" xmlns="http://www.w3.org/2000/svg" xmlns:xlink="http://www.w3.org/1999/xlink" width="790.17724609375" height="283"><defs/><g><text fill="#eeeeee" stroke="none" font-family="Arial" font-size="24px" font-style="normal" font-weight="normal" text-decoration="none" x="0" y="0"></text><text fill="#eeeeee" stroke="none" font-family="Arial" font-size="24px" font-style="normal" font-weight="normal" text-decoration="none" x="0" y="30"></text><text fill="#eeeeee" stroke="none" font-family="Arial" font-size="24px" font-style="normal" font-weight="normal" text-decoration="none" x="0" y="60"></text><text fill="#eeeeee" stroke="none" font-family="Arial" font-size="24px" font-style="normal" font-weight="normal" text-decoration="none" x="0" y="90"></text><text fill="#eeeeee" stroke="none" font-family="Arial" font-size="24px" font-style="normal" font-weight="normal" text-decoration="none" x="0" y="120"></text><text fill="#eeeeee" stroke="none" font-family="Arial" font-size="24px" font-style="normal" font-weight="normal" text-decoration="none" x="0" y="150"></text><text fill="#eeeeee" stroke="none" font-family="Arial" font-size="24px" font-style="normal" font-weight="normal" text-decoration="none" x="0" y="180"></text><text fill="#eeeeee" stroke="none" font-family="Arial" font-size="24px" font-style="normal" font-weight="normal" text-decoration="none" x="0" y="210"></text><text fill="#eeeeee" stroke="none" font-family="Arial" font-size="24px" font-style="normal" font-weight="normal" text-decoration="none" x="0" y="240"></text><text fill="#eeeeee" stroke="none" font-family="Arial" font-size="24px" font-style="normal" font-weight="normal" text-decoration="none" x="0" y="270"></text><text fill="#eeeeee" stroke="none" font-family="Arial" font-size="24px" font-style="normal" font-weight="normal" text-decoration="none" x="200" y="0"></text><text fill="#eeeeee" stroke="none" font-family="Arial" font-size="24px" font-style="normal" font-weight="normal" text-decoration="none" x="200" y="30"></text><text fill="#eeeeee" stroke="none" font-family="Arial" font-size="24px" font-style="normal" font-weight="normal" text-decoration="none" x="200" y="60"></text><text fill="#eeeeee" stroke="none" font-family="Arial" font-size="24px" font-style="normal" font-weight="normal" text-decoration="none" x="200" y="90"></text><text fill="#eeeeee" stroke="none" font-family="Arial" font-size="24px" font-style="normal" font-weight="normal" text-decoration="none" x="200" y="120"></text><text fill="#eeeeee" stroke="none" font-family="Arial" font-size="24px" font-style="normal" font-weight="normal" text-decoration="none" x="200" y="150"></text><text fill="#eeeeee" stroke="none" font-family="Arial" font-size="24px" font-style="normal" font-weight="normal" text-decoration="none" x="200" y="180"></text><text fill="#eeeeee" stroke="none" font-family="Arial" font-size="24px" font-style="normal" font-weight="normal" text-decoration="none" x="200" y="210"></text><text fill="#eeeeee" stroke="none" font-family="Arial" font-size="24px" font-style="normal" font-weight="normal" text-decoration="none" x="200" y="240"></text><text fill="#eeeeee" stroke="none" font-family="Arial" font-size="24px" font-style="normal" font-weight="normal" text-decoration="none" x="200" y="270"></text><text fill="#eeeeee" stroke="none" font-family="Arial" font-size="24px" font-style="normal" font-weight="normal" text-decoration="none" x="400" y="0"></text><text fill="#eeeeee" stroke="none" font-family="Arial" font-size="24px" font-style="normal" font-weight="normal" text-decoration="none" x="400" y="30"></text><text fill="#eeeeee" stroke="none" font-family="Arial" font-size="24px" font-style="normal" font-weight="normal" text-decoration="none" x="400" y="60"></text><text fill="#eeeeee" stroke="none" font-family="Arial" font-size="24px" font-style="normal" font-weight="normal" text-decoration="none" x="400" y="90"></text><text fill="#eeeeee" stroke="none" font-family="Arial" font-size="24px" font-style="normal" font-weight="normal" text-decoration="none" x="400" y="120"></text><text fill="#eeeeee" stroke="none" font-family="Arial" font-size="24px" font-style="normal" font-weight="normal" text-decoration="none" x="400" y="150"></text><text fill="#eeeeee" stroke="none" font-family="Arial" font-size="24px" font-style="normal" font-weight="normal" text-decoration="none" x="400" y="180"></text><text fill="#eeeeee" stroke="none" font-family="Arial" font-size="24px" font-style="normal" font-weight="normal" text-decoration="none" x="400" y="210"></text><text fill="#eeeeee" stroke="none" font-family="Arial" font-size="24px" font-style="normal" font-weight="normal" text-decoration="none" x="400" y="240"></text><text fill="#eeeeee" stroke="none" font-family="Arial" font-size="24px" font-style="normal" font-weight="normal" text-decoration="none" x="400" y="270"></text><text fill="#eeeeee" stroke="none" font-family="Arial" font-size="24px" font-style="normal" font-weight="normal" text-decoration="none" x="600" y="0"></text><text fill="#eeeeee" stroke="none" font-family="Arial" font-size="24px" font-style="normal" font-weight="normal" text-decoration="none" x="600" y="30"></text><text fill="#eeeeee" stroke="none" font-family="Arial" font-size="24px" font-style="normal" font-weight="normal" text-decoration="none" x="600" y="60"></text><text fill="#eeeeee" stroke="none" font-family="Arial" font-size="24px" font-style="normal" font-weight="normal" text-decoration="none" x="600" y="90"></text><text fill="#eeeeee" stroke="none" font-family="Arial" font-size="24px" font-style="normal" font-weight="normal" text-decoration="none" x="600" y="120"></text><text fill="#eeeeee" stroke="none" font-family="Arial" font-size="24px" font-style="normal" font-weight="normal" text-decoration="none" x="600" y="150"></text><text fill="#eeeeee" stroke="none" font-family="Arial" font-size="24px" font-style="normal" font-weight="normal" text-decoration="none" x="600" y="180"></text><text fill="#eeeeee" stroke="none" font-family="Arial" font-size="24px" font-style="normal" font-weight="normal" text-decoration="none" x="600" y="210"></text><text fill="#eeeeee" stroke="none" font-family="Arial" font-size="24px" font-style="normal" font-weight="normal" text-decoration="none" x="600" y="240"></text><text fill="#eeeeee" stroke="none" font-family="Arial" font-size="24px" font-style="normal" font-weight="normal" text-decoration="none" x="600" y="270"></text><g transform="translate(-118,-150) scale(1,1)"><rect fill="#C0C0C0" stroke="none" x="383" y="167" width="375" height="263" opacity="0.2"/></g><g transform="translate(-118,-150) scale(1,1)"><rect fill="#ffffff" stroke="none" x="376" y="160" width="375" height="263"/></g><g transform="translate(-118,-150) scale(1,1)"><path fill="none" stroke="#000000" d="M 376 160 L 751 160 L 751 423 L 376 423 L 376 160 Z Z" stroke-miterlimit="10"/></g><g transform="translate(-118,-150) scale(1,1)"><g><path fill="none" stroke="none"/><text fill="#000000" stroke="none" font-family="Arial" font-size="13px" font-style="normal" font-weight="bold" text-decoration="none" x="508.23095703125" y="177.5">Scraping Sensore</text></g></g><g transform="translate(-118,-150) scale(1,1)"><path fill="#ffffff" stroke="none" d="M 148.75114719460228 297.68 C 148.75114719460228 292.886167936 152.63698951954774 289 157.430419921875 289 C 162.22385032420226 289 166.10969264914772 292.886167936 166.10969264914772 297.68 C 166.10969264914772 302.473832064 162.22385032420226 306.36 157.430419921875 306.36 C 152.63698951954774 306.36 148.75114719460228 302.473832064 148.75114719460228 297.68 Z"/></g><g transform="translate(-118,-150) scale(1,1)"><path fill="none" stroke="#000000" d="M 148.75114719460228 297.68 C 148.75114719460228 292.886167936 152.63698951954774 289 157.430419921875 289 C 162.22385032420226 289 166.10969264914772 292.886167936 166.10969264914772 297.68 C 166.10969264914772 302.473832064 162.22385032420226 306.36 157.430419921875 306.36 C 152.63698951954774 306.36 148.75114719460228 302.473832064 148.75114719460228 297.68 Z" stroke-miterlimit="10"/></g><g transform="translate(-118,-150) scale(1,1)"><path fill="none" stroke="#000000" d="M 157.430419921875 306.36 L 157.430419921875 323.64" stroke-miterlimit="10"/></g><g transform="translate(-118,-150) scale(1,1)"><path fill="none" stroke="#000000" d="M 148.24060174005683 312.84 L 166.62023810369317 312.84" stroke-miterlimit="10"/></g><g transform="translate(-118,-150) scale(1,1)"><path fill="none" stroke="#000000" d="M 157.430419921875 323.64 L 144.66678355823865 341" stroke-miterlimit="10"/></g><g transform="translate(-118,-150) scale(1,1)"><path fill="none" stroke="#000000" d="M 157.430419921875 323.64 L 170.19405628551135 341" stroke-miterlimit="10"/></g><g transform="translate(-118,-150) scale(1,1)"><g><path fill="none" stroke="none"/><text fill="#000000" stroke="none" font-family="Arial" font-size="13px" font-style="normal" font-weight="bold" text-decoration="none" x="132.5" y="359.5">Sistema</text></g></g><g transform="translate(-118,-150) scale(1,1)"><path fill="#C0C0C0" stroke="none" d="M 455 233 C 455 218.6405952 505.1441024 207 567 207 C 628.8558976 207 679 218.6405952 679 233 C 679 247.3594048 628.8558976 259 567 259 C 505.1441024 259 455 247.3594048 455 233 Z" opacity="0.2"/></g><g transform="translate(-118,-150) scale(1,1)"><path fill="#ffffff" stroke="none" d="M 448 226 C 448 211.6405952 498.1441024 200 560 200 C 621.8558976 200 672 211.6405952 672 226 C 672 240.3594048 621.8558976 252 560 252 C 498.1441024 252 448 240.3594048 448 226 Z"/></g><g transform="translate(-118,-150) scale(1,1)"><path fill="none" stroke="#000000" d="M 448 226 C 448 211.6405952 498.1441024 200 560 200 C 621.8558976 200 672 211.6405952 672 226 C 672 240.3594048 621.8558976 252 560 252 C 498.1441024 252 448 240.3594048 448 226 Z" stroke-miterlimit="10"/></g><g transform="translate(-118,-150) scale(1,1)"><g><path fill="none" stroke="none"/><text fill="#000000" stroke="none" font-family="Arial" font-size="13px" font-style="normal" font-weight="bold" text-decoration="none" x="489.937744140625" y="224.5">UC21 Ottenimento dati</text><text fill="#000000" stroke="none" font-family="Arial" font-size="13px" font-style="normal" font-weight="bold" text-decoration="none" x="500.763671875" y="237.5">sensori da file XML</text></g></g><g transform="translate(-118,-150) scale(1,1)"><path fill="#C0C0C0" stroke="none" d="M 479 379 C 479 363.5360256 520.1897984 351 571 351 C 621.8102016 351 663 363.5360256 663 379 C 663 394.4639744 621.8102016 407 571 407 C 520.1897984 407 479 394.4639744 479 379 Z" opacity="0.2"/></g><g transform="translate(-118,-150) scale(1,1)"><path fill="#ffffff" stroke="none" d="M 472 372 C 472 356.5360256 513.1897984 344 564 344 C 614.8102016 344 656 356.5360256 656 372 C 656 387.4639744 614.8102016 400 564 400 C 513.1897984 400 472 387.4639744 472 372 Z"/></g><g transform="translate(-118,-150) scale(1,1)"><path fill="none" stroke="#000000" d="M 472 372 C 472 356.5360256 513.1897984 344 564 344 C 614.8102016 344 656 356.5360256 656 372 C 656 387.4639744 614.8102016 400 564 400 C 513.1897984 400 472 387.4639744 472 372 Z" stroke-miterlimit="10"/></g><g transform="translate(-118,-150) scale(1,1)"><g><path fill="none" stroke="none"/><text fill="#000000" stroke="none" font-family="Arial" font-size="13px" font-style="normal" font-weight="bold" text-decoration="none" x="505.852294921875" y="370.5">UC23 Modifica dati</text><text fill="#000000" stroke="none" font-family="Arial" font-size="13px" font-style="normal" font-weight="bold" text-decoration="none" x="540.878662109375" y="383.5">sensori</text></g></g><g transform="translate(-118,-150) scale(1,1)"><path fill="#C0C0C0" stroke="none" d="M 455 305 C 455 290.6405952 504.9202448 279 566.5 279 C 628.0797552 279 678 290.6405952 678 305 C 678 319.3594048 628.0797552 331 566.5 331 C 504.9202448 331 455 319.3594048 455 305 Z" opacity="0.2"/></g><g transform="translate(-118,-150) scale(1,1)"><path fill="#ffffff" stroke="none" d="M 448 298 C 448 283.6405952 497.9202448 272 559.5 272 C 621.0797552 272 671 283.6405952 671 298 C 671 312.3594048 621.0797552 324 559.5 324 C 497.9202448 324 448 312.3594048 448 298 Z"/></g><g transform="translate(-118,-150) scale(1,1)"><path fill="none" stroke="#000000" d="M 448 298 C 448 283.6405952 497.9202448 272 559.5 272 C 621.0797552 272 671 283.6405952 671 298 C 671 312.3594048 621.0797552 324 559.5 324 C 497.9202448 324 448 312.3594048 448 298 Z" stroke-miterlimit="10"/></g><g transform="translate(-118,-150) scale(1,1)"><g><path fill="none" stroke="none"/><text fill="#000000" stroke="none" font-family="Arial" font-size="13px" font-style="normal" font-weight="bold" text-decoration="none" x="510.010498046875" y="296.5">UC22 Creazione</text><text fill="#000000" stroke="none" font-family="Arial" font-size="13px" font-style="normal" font-weight="bold" text-decoration="none" x="536.378662109375" y="309.5">sensori</text></g></g><g transform="translate(-118,-150) scale(1,1)"><path fill="none" stroke="#000000" d="M 188 319 L 452 253" stroke-miterlimit="10"/></g><g transform="translate(-118,-150) scale(1,1)"><path fill="none" stroke="#000000" d="M 188 325 L 447 306" stroke-miterlimit="10"/></g><g transform="translate(-118,-150) scale(1,1)"><path fill="none" stroke="#000000" d="M 188 330 L 471 362" stroke-miterlimit="10"/></g><g transform="translate(-118,-150) scale(1,1)"><path fill="#ffffff" stroke="none" d="M 864.4093503196023 281.68 C 864.4093503196023 276.886167936 868.2951926445477 273 873.088623046875 273 C 877.8820534492023 273 881.7678957741477 276.886167936 881.7678957741477 281.68 C 881.7678957741477 286.473832064 877.8820534492023 290.36 873.088623046875 290.36 C 868.2951926445477 290.36 864.4093503196023 286.473832064 864.4093503196023 281.68 Z"/></g><g transform="translate(-118,-150) scale(1,1)"><path fill="none" stroke="#000000" d="M 864.4093503196023 281.68 C 864.4093503196023 276.886167936 868.2951926445477 273 873.088623046875 273 C 877.8820534492023 273 881.7678957741477 276.886167936 881.7678957741477 281.68 C 881.7678957741477 286.473832064 877.8820534492023 290.36 873.088623046875 290.36 C 868.2951926445477 290.36 864.4093503196023 286.473832064 864.4093503196023 281.68 Z" stroke-miterlimit="10"/></g><g transform="translate(-118,-150) scale(1,1)"><path fill="none" stroke="#000000" d="M 873.088623046875 290.36 L 873.088623046875 307.64" stroke-miterlimit="10"/></g><g transform="translate(-118,-150) scale(1,1)"><path fill="none" stroke="#000000" d="M 863.8988048650568 296.84 L 882.2784412286932 296.84" stroke-miterlimit="10"/></g><g transform="translate(-118,-150) scale(1,1)"><path fill="none" stroke="#000000" d="M 873.088623046875 307.64 L 860.3249866832386 325" stroke-miterlimit="10"/></g><g transform="translate(-118,-150) scale(1,1)"><path fill="none" stroke="#000000" d="M 873.088623046875 307.64 L 885.8522594105114 325" stroke-miterlimit="10"/></g><g transform="translate(-118,-150) scale(1,1)"><g><path fill="none" stroke="none"/><text fill="#000000" stroke="none" font-family="Arial" font-size="13px" font-style="normal" font-weight="bold" text-decoration="none" x="855.505615234375" y="343.5">Timer</text></g></g><g transform="translate(-118,-150) scale(1,1)"><path fill="none" stroke="#000000" d="M 847 304 L 659 253" stroke-miterlimit="10"/></g><g transform="translate(-118,-150) scale(1,1)"><path fill="none" stroke="#000000" d="M 847 310 L 672 303" stroke-miterlimit="10"/></g><g transform="translate(-118,-150) scale(1,1)"><path fill="none" stroke="#000000" d="M 847 316 L 657 354" stroke-miterlimit="10"/></g></g></svg>